<?xml version="1.0" encoding="UTF-8" standalone="no"?>
<!-- Created with Inkscape (http://www.inkscape.org/) -->
<svg
   xmlns:dc="http://purl.org/dc/elements/1.1/"
   xmlns:cc="http://creativecommons.org/ns#"
   xmlns:rdf="http://www.w3.org/1999/02/22-rdf-syntax-ns#"
   xmlns:svg="http://www.w3.org/2000/svg"
   xmlns="http://www.w3.org/2000/svg"
   xmlns:sodipodi="http://sodipodi.sourceforge.net/DTD/sodipodi-0.dtd"
   xmlns:inkscape="http://www.inkscape.org/namespaces/inkscape"
   id="svg2457"
   sodipodi:version="0.32"
   inkscape:version="0.46"
   width="750"
   height="448"
   version="1.0"
   sodipodi:docname="ISS.svg"
   inkscape:output_extension="org.inkscape.output.svg.inkscape">
  <metadata
     id="metadata2462">
    <rdf:RDF>
      <cc:Work
         rdf:about="">
        <dc:format>image/svg+xml</dc:format>
        <dc:type
           rdf:resource="http://purl.org/dc/dcmitype/StillImage" />
      </cc:Work>
    </rdf:RDF>
  </metadata>
  <defs
     id="defs2460">
    <inkscape:perspective
       sodipodi:type="inkscape:persp3d"
       inkscape:vp_x="0 : 526.18109 : 1"
       inkscape:vp_y="0 : 1000 : 0"
       inkscape:vp_z="744.09448 : 526.18109 : 1"
       inkscape:persp3d-origin="372.04724 : 350.78739 : 1"
       id="perspective2464" />
  </defs>
  <sodipodi:namedview
     inkscape:window-height="974"
     inkscape:window-width="1280"
     inkscape:pageshadow="2"
     inkscape:pageopacity="0.0"
     guidetolerance="10.0"
     gridtolerance="10.0"
     objecttolerance="10.0"
     borderopacity="1.0"
     bordercolor="#666666"
     pagecolor="#ffffff"
     id="base"
     showgrid="false"
     inkscape:zoom="0.51288813"
     inkscape:cx="471.59105"
     inkscape:cy="163.45857"
     inkscape:window-x="-8"
     inkscape:window-y="-8"
     inkscape:current-layer="svg2457" />
  <path
     id="path5301"
     style="fill:#000000;fill-opacity:1;stroke:#000000;stroke-width:1;stroke-opacity:1"
     d="M 682.04162,192.34202 C 683.18348,193.05513 684.27873,193.47758 684.4755,193.2808 C 684.80327,192.95303 683.57443,175.54413 680.96162,143.5 C 680.40104,136.625 679.71102,127.4 679.42824,123 C 678.20479,103.96375 676.47475,82.03703 675.44372,72.5 C 675.17615,70.025 674.69384,64.175 674.37192,59.5 C 674.05,54.825 673.63882,49.425 673.4582,47.5 C 673.27757,45.575 672.80776,38.76794 672.41418,32.37321 L 671.69857,20.74642 L 677.06077,20.6994 C 686.41944,20.61733 698.05024,19.7063 698.74877,19.00061 C 700.10292,17.63255 671.47213,19.73199 668.55616,21.21458 C 665.76801,22.63217 664.5789,22.59001 660.42297,20.92622 C 658.76844,20.26384 658.62316,20.37379 659.58192,21.56276 C 660.21934,22.35324 661.03555,27.275 661.3957,32.5 C 661.75586,37.725 662.25332,44.475 662.50116,47.5 C 662.74901,50.525 663.39146,59.43131 663.92882,67.29181 C 664.46619,75.1523 665.11289,82.5773 665.36593,83.79181 C 665.61897,85.00631 666.06326,89.825 666.35324,94.5 C 667.2819,109.47154 668.93054,133.62799 669.90217,146.5 C 670.42112,153.375 671.34107,166.2 671.94652,175 C 672.55196,183.8 673.2189,191.53301 673.42861,192.18447 C 673.72053,193.0913 674.53136,193.09663 676.88771,192.20721 C 679.29649,191.29799 680.41678,191.3273 682.04162,192.34202 z M 597.88372,433.25 C 597.83836,421.40382 597.22871,406.83902 595.94778,387 C 595.45063,379.3 594.99602,366.96113 594.93755,359.58029 C 594.87907,352.19945 594.67712,345.89945 594.48877,345.58029 C 594.30042,345.26113 593.85158,336 593.49135,325 C 592.8243,304.6307 592.5715,298.27429 591.30389,270 C 590.90936,261.2 590.54976,251.3 590.50477,248 L 590.42297,242 L 595.42297,241.49622 C 600.29822,241.005 600.33945,240.97395 597.07529,240.25168 C 595.23407,239.84427 592.64657,239.78225 591.32529,240.11387 C 589.66584,240.53037 588.92297,240.29383 588.92297,239.34895 C 588.92297,236.46569 592.36032,235.91362 606.92297,236.45798 C 621.0843,236.98734 621.43055,237.05343 621.74747,239.28775 C 622.02297,241.23009 621.72101,241.49164 619.74747,241.0201 C 618.46899,240.71463 615.39797,240.87334 612.92297,241.37278 L 608.42297,242.28087 L 613.42297,242.50892 C 616.17297,242.63434 618.95154,242.67171 619.59756,242.59196 C 620.24359,242.51221 621.00588,242.82514 621.29155,243.28736 C 621.81094,244.12776 623.32556,266.39252 624.40126,289 C 624.7153,295.6 625.16988,304.375 625.41143,308.5 C 625.65298,312.625 626.10378,321.625 626.4132,328.5 C 626.72261,335.375 627.17663,344.825 627.42212,349.5 C 627.66761,354.175 628.09574,362.5 628.37352,368 C 628.6513,373.5 629.10809,382.5 629.38862,388 C 629.66914,393.5 630.1306,403.175 630.41409,409.5 C 630.69758,415.825 631.207,426.0625 631.54615,432.25 L 632.16277,443.5 L 615.04287,443.5 L 597.92297,443.5 L 597.88372,433.25 z M 658.42297,446.24797 C 656.64882,445.35516 656.41734,444.21155 656.37314,436.12075 C 656.32313,426.96881 655.65735,413.48983 653.92214,386.5 C 653.40942,378.525 652.74068,367.05 652.43606,361 C 652.13143,354.95 651.67181,347.525 651.41469,344.5 C 651.15756,341.475 650.71554,334.05 650.43241,328 C 650.14928,321.95 649.70285,314.525 649.44034,311.5 C 648.96249,305.99356 648.48486,298.15595 647.42928,278.5 C 647.11914,272.725 646.61753,265.1875 646.31459,261.75 L 645.76378,255.5 L 638.21253,255.5 L 630.66129,255.5 L 631.37906,251.75 C 631.77384,249.6875 632.08795,247.24251 632.07708,246.3167 C 632.06621,245.39088 632.69018,244.10816 633.46368,243.46621 C 634.23718,242.82426 635.17484,240.65675 635.54737,238.64952 C 635.91991,236.64228 636.88357,233.9875 637.68885,232.75 C 639.14559,230.51138 639.12502,230.5 633.62131,230.5 C 630.57889,230.5 627.93214,230.02751 627.73964,229.45002 C 627.51667,228.7811 622.00167,228.39107 612.54339,228.3753 C 596.98602,228.34938 594.92297,228.07646 594.92297,226.04431 C 594.92297,225.23465 593.44417,224.83694 590.67297,224.9013 C 586.75139,224.99237 586.39852,224.78749 586.10655,222.25 C 585.92329,220.6573 585.17881,219.5 584.3375,219.5 C 583.28737,219.5 583.05873,220.19271 583.51233,222 C 583.89894,223.5404 583.71434,224.5 583.03138,224.5 C 582.42175,224.5 581.92297,225.12686 581.92297,225.89301 C 581.92297,227.19299 579.89589,228.5 577.87973,228.5 C 577.39591,228.5 576.45424,226.5875 575.78714,224.25 L 574.57421,220 L 573.99216,223 C 573.55749,225.24036 572.7787,226.08474 570.91654,226.33468 C 567.62779,226.77608 566.92397,227.56168 565.95055,231.87774 L 565.13359,235.5 L 570.06346,235.5 C 574.84959,235.5 579.92297,237.65688 579.92297,239.69163 C 579.92297,240.22051 578.46047,240.57316 576.67297,240.4753 C 574.88547,240.37744 571.17297,240.42242 568.42297,240.57527 C 563.69226,240.83821 563.79636,240.88406 570.35578,241.42659 C 576.74036,241.95466 577.34242,242.20266 577.96922,244.56275 C 578.34357,245.97226 578.95686,257.22226 579.33209,269.56275 C 579.70732,281.90324 580.19934,294.925 580.42546,298.5 C 580.80909,304.56524 581.17295,314.80665 582.43283,355 C 583.04829,374.63486 583.65725,393.78758 584.49949,420 C 584.85294,431 585.5616,440.51874 586.07429,441.15275 C 586.67731,441.89849 586.55035,442.48851 585.71471,442.82381 C 584.89324,443.15341 585.06008,443.37085 586.17297,443.42105 C 587.13547,443.46447 587.92297,442.85532 587.92297,442.06739 C 587.92297,440.4613 591.35978,439.0339 592.91402,439.99447 C 593.46894,440.33743 593.92297,441.23066 593.92297,441.97942 C 593.92297,442.91681 591.9001,443.55744 587.42787,444.03638 C 578.67826,444.97338 554.21642,444.19345 552.9604,442.93743 C 552.39663,442.37366 551.73513,433.80826 551.4566,423.46545 C 550.45069,386.11289 549.9327,365.47713 549.44936,343.5 C 548.91854,319.36392 547.84792,281.80015 547.41152,272 C 547.26457,268.7 547.09453,263.4125 547.03365,260.25 L 546.92297,254.5 L 543.42297,254.5 C 540.72849,254.5 539.93977,254.09724 539.99597,252.75 C 540.14027,249.29109 543.07058,234.18152 544.46657,229.69828 C 545.12884,227.5714 544.96451,227.45017 542.30313,228.10225 C 540.71904,228.49038 539.19797,229.10171 538.92297,229.46075 C 538.17098,230.44255 531.92368,232.83404 531.42185,232.33221 C 531.1815,232.09186 530.87219,230.41663 530.73449,228.60947 C 530.49714,225.49462 530.40452,225.42186 528.95355,227.21049 C 527.32795,229.21439 523.36651,231.20938 524.43005,229.48855 C 524.76607,228.94485 524.56445,228.5 523.98199,228.5 C 523.39953,228.5 522.92297,229.175 522.92297,230 C 522.92297,232.22387 520.23968,231.81909 519.63424,229.50388 C 519.34714,228.40602 519.35478,225.6995 519.65122,223.4894 C 520.07826,220.30558 520.68828,219.34602 522.5885,218.8691 C 524.83153,218.30613 524.87144,218.18057 523.20489,216.92972 C 521.69084,215.79332 521.23506,215.83955 520.17297,217.23726 C 519.48547,218.14201 518.92297,219.89469 518.92297,221.13211 C 518.92297,223.83541 517.17645,225.15348 515.63584,223.61287 C 514.25138,222.22841 510.92297,222.14869 510.92297,223.5 C 510.92297,224.05 510.13547,224.50689 509.17297,224.51531 C 507.67801,224.52839 507.64157,224.67141 508.92297,225.49666 C 509.97426,226.17371 510.75509,226.01956 511.53321,224.98134 C 512.7946,223.29834 514.92297,222.99611 514.92297,224.5 C 514.92297,225.05 515.59797,225.5 516.42297,225.5 C 517.5063,225.5 517.92297,226.61111 517.92297,229.5 C 517.92297,232.38889 517.5063,233.5 516.42297,233.5 C 515.59797,233.5 514.92297,233.05 514.92297,232.5 C 514.92297,231.95 514.36047,231.6125 513.67297,231.75 C 512.98547,231.8875 512.42297,231.325 512.42297,230.5 C 512.42297,229.675 511.15193,228.36505 509.59844,227.589 C 507.62588,226.60361 506.91897,225.6233 507.25482,224.339 C 507.6156,222.95939 507.19705,222.51972 505.57935,222.57895 C 504.39334,222.62237 503.98547,222.88487 504.67297,223.16228 C 505.36047,223.43969 505.92297,225.20417 505.92297,227.08333 C 505.92297,229.83333 505.53273,230.5 503.92297,230.5 C 502.82297,230.5 501.92297,230.90122 501.92297,231.39159 C 501.92297,232.5703 497.48068,233.65125 495.60097,232.92993 C 494.78647,232.61738 493.89284,231.49278 493.61513,230.43083 C 493.01692,228.14325 490.38133,227.86314 489.56134,230 C 488.90198,231.71828 484.92297,232.06211 484.92297,230.40081 C 484.92297,229.79626 487.22817,227.04443 490.04564,224.28564 C 493.97395,220.43914 494.84826,219.06693 493.79564,218.40014 C 492.66381,217.68318 492.68615,217.52525 493.92297,217.5 C 495.2563,217.47278 495.2563,217.36167 493.92297,216.5 C 492.71001,215.71613 492.85353,215.5277 494.67297,215.51531 C 496.47548,215.50305 496.92297,214.93417 496.92297,212.65499 C 496.92297,209.58076 494.61784,206.93049 491.42297,206.33151 C 489.97069,206.05923 489.42297,205.16488 489.42297,203.06579 C 489.42297,201.47587 488.91946,200.00532 488.30407,199.79788 C 487.61073,199.56418 487.35813,200.32559 487.63995,201.79978 C 488.2926,205.21395 479.61246,212.88987 476.09678,212.00749 C 473.86974,211.44854 473.80777,211.52766 475.30217,213.02206 C 476.19361,213.9135 476.92297,215.23757 476.92297,215.96444 C 476.92297,216.69131 477.59797,217.54504 478.42297,217.86163 C 479.24797,218.17821 479.92297,219.07821 479.92297,219.86163 C 479.92297,221.50285 477.81338,222.5 474.34118,222.5 C 472.52347,222.5 471.90337,221.94128 471.84402,220.25 C 471.79243,218.77951 471.56547,218.50765 471.18892,219.4653 C 470.87204,220.27121 469.67007,221.768 468.51787,222.79149 C 467.36568,223.81498 467.055,224.32356 467.82748,223.92168 C 468.75934,223.43688 468.98848,223.58499 468.50838,224.3618 C 468.1104,225.00575 467.43402,225.31584 467.00532,225.05089 C 466.57661,224.78594 465.27652,225.4536 464.11623,226.53458 C 461.70079,228.7849 459.8449,229.02193 458.12297,227.3 C 457.18964,226.36667 456.92297,226.58889 456.92297,228.3 C 456.92297,229.51 457.39342,230.5 457.96842,230.5 C 458.54342,230.5 460.17445,231.66057 461.59292,233.07905 C 463.80654,235.29266 464.01567,236.00112 463.06891,238.07905 C 462.0266,240.36665 458.92297,241.51769 458.92297,239.61663 C 458.92297,239.13078 458.02297,238.49791 456.92297,238.21025 C 454.91255,237.68451 454.05425,234.5 455.92297,234.5 C 456.47297,234.5 456.92297,234.05 456.92297,233.5 C 456.92297,232.95 456.24797,232.5 455.42297,232.5 C 454.54394,232.5 453.9092,233.43145 453.8897,234.75 C 453.83449,238.48386 447.50615,244.5 443.63374,244.5 C 441.76704,244.5 435.4417,240.25439 433.20477,237.5 C 432.53477,236.675 431.97227,235.2125 431.95477,234.25 C 431.92918,232.84158 430.99582,232.48892 427.17297,232.44323 C 424.56047,232.412 419.8401,232.2995 416.68325,232.19323 C 409.21677,231.94187 408.25021,233.88646 414.98383,235.61224 C 419.43106,236.75203 419.92297,237.15806 419.92297,239.68905 C 419.92297,241.52101 420.44539,242.5 421.42297,242.5 C 422.35323,242.5 422.92297,241.55767 422.92297,240.01905 C 422.92297,238.20328 423.59673,237.369 425.43596,236.90738 C 428.54889,236.12609 430.70532,237.79626 431.11361,241.30477 C 431.3382,243.23473 432.24503,244.24064 434.42297,244.97572 C 438.78769,246.44887 440.08121,248.02134 439.34412,250.95813 C 438.77092,253.24196 438.21556,253.5 433.87358,253.5 C 431.21566,253.5 428.76289,253.05 428.42297,252.5 C 426.12626,248.78384 421.61847,256.03949 422.01634,262.81199 C 422.56963,272.23005 423.79107,271.5 407.48047,271.5 L 393.03797,271.5 L 392.73047,275.75 C 392.44976,279.62972 392.16589,280.02926 389.47228,280.33579 C 385.76538,280.75763 383.92297,278.44703 383.92297,273.37626 C 383.92297,270.51303 384.39244,269.48577 385.92297,269 C 388.26626,268.25627 388.46116,267.19155 386.54511,265.60137 C 385.46267,264.70302 385.05422,264.89009 384.64005,266.47388 C 383.86076,269.45388 381.36513,269.94216 379.00029,267.57732 C 377.85776,266.43479 376.92297,265.0875 376.92297,264.58333 C 376.92297,264.07917 376.41663,263.49789 375.79777,263.2916 C 374.47726,262.85143 375.57449,256.5 376.97104,256.5 C 377.46008,256.5 377.60562,255.83656 377.29446,255.0257 C 376.79596,253.72663 376.55348,253.72663 375.25441,255.0257 C 373.346,256.93412 370.92297,256.91974 370.92297,255 C 370.92297,254.175 371.39953,253.5 371.98199,253.5 C 372.56445,253.5 372.75608,254.0625 372.40783,254.75 C 372.05958,255.4375 372.37053,255.29711 373.09881,254.43803 C 373.8271,253.57894 375.14803,252.60453 376.03421,252.27266 C 376.92039,251.94079 377.89076,250.73118 378.19059,249.58463 C 378.61796,247.95034 378.26989,247.49669 376.57935,247.48469 C 374.99865,247.47346 374.78295,247.24125 375.77136,246.61486 C 376.51298,246.14488 376.95463,244.91427 376.75281,243.88017 C 376.48149,242.49 375.68123,242.08286 373.68212,242.31794 C 371.00857,242.63232 370.98037,242.57299 371.15697,237.00445 C 371.2609,233.7274 370.86588,231.08275 370.21212,230.6787 C 369.59422,230.29682 369.18707,228.56298 369.30734,226.82573 L 369.52602,223.66708 L 367.08964,225.58354 C 365.74963,226.63759 363.31148,227.5 361.67153,227.5 C 359.0604,227.5 358.74704,227.79936 359.15027,229.9087 C 359.50771,231.77855 359.25415,232.19588 358.01685,231.77417 C 356.95248,231.41141 357.0874,231.76339 358.42297,232.83366 C 360.21363,234.26864 360.2398,234.43972 358.67297,234.4682 C 357.51011,234.48933 356.94946,235.25489 357.00192,236.75 C 357.04534,237.9875 357.30784,238.4375 357.58525,237.75 C 358.29662,235.98705 359.67871,236.19453 362.07114,238.42341 C 364.63823,240.81502 363.72593,242.5 359.86395,242.5 C 357.65035,242.5 356.92297,242.9658 356.92297,244.38337 C 356.92297,245.42573 357.81605,246.50028 358.92297,246.78975 C 360.02297,247.07741 360.92297,246.90489 360.92297,246.40638 C 360.92297,244.90394 363.66615,245.38835 364.2846,247 C 364.65442,247.96375 364.2458,248.52513 363.14159,248.57029 C 361.70792,248.62892 361.75457,248.78307 363.42297,249.5 C 365.02154,250.18693 365.08809,250.37354 363.75453,250.42971 C 361.77816,250.51297 357.49754,257.00263 358.42701,258.50654 C 358.78155,259.0802 358.47568,259.4259 357.7473,259.27478 C 356.72467,259.0626 356.30906,261.84765 355.92297,271.5 L 355.42297,284 L 349.77558,284.89636 C 341.87919,286.14969 340.92297,285.58175 340.92297,279.63837 C 340.92297,274.32386 341.72487,273.5 346.89777,273.5 C 349.85323,273.5 351.8869,270.99495 349.05936,270.83738 C 348.15934,270.78723 335.72354,270.46752 321.42424,270.12692 C 306.53088,269.77217 295.29059,269.10286 295.10964,268.56 C 294.9359,268.03879 294.15162,267.85876 293.36679,268.15993 C 292.58196,268.4611 291.6625,267.98481 291.32355,267.10152 C 290.40264,264.70167 291.75099,260.5 293.44202,260.5 C 295.22888,260.5 295.51367,254.4907 293.80766,252.78469 C 292.98725,251.96428 293.02525,249.33342 293.95141,242.83469 C 294.80503,236.84486 295.44589,234.64402 295.94158,236 C 296.3437,237.1 296.43449,238.40703 296.14333,238.90451 C 295.85217,239.40199 296.09124,239.51404 296.67458,239.15351 C 297.25793,238.79299 297.48157,237.52809 297.17157,236.34263 C 296.78542,234.866 296.97244,234.41254 297.76545,234.90265 C 298.56195,235.39491 298.92297,234.47165 298.92297,231.94239 C 298.92297,228.78201 299.19819,228.33871 300.8862,228.78013 C 301.96598,229.0625 303.37108,228.66499 304.00865,227.89677 C 304.98788,226.71686 303.60999,226.5 295.1339,226.5 C 286.11679,226.5 285.13389,226.32265 285.43494,224.75 C 285.6192,223.7875 285.83601,221.875 285.91674,220.5 C 286.03399,218.50332 286.20276,218.35157 286.75503,219.74628 C 287.39672,221.36677 287.53424,221.3521 288.66427,219.54264 C 290.34627,216.84933 288.83726,216.26926 284.27945,217.85707 C 282.15839,218.59599 279.74797,219.00868 278.92297,218.77415 C 277.67566,218.41957 277.65809,218.51202 278.81869,219.32294 C 279.58633,219.85931 279.94851,220.99106 279.62353,221.83794 C 279.19934,222.94337 279.79294,223.49376 281.72781,223.78904 C 283.21015,224.01525 282.17297,224.26087 279.42297,224.33486 C 276.67297,224.40884 274.87297,224.13877 275.42297,223.73469 C 275.97297,223.33061 276.51746,222.05919 276.63295,220.90932 C 276.8047,219.1993 276.03655,218.63411 272.41408,217.80517 C 269.97821,217.24777 268.20355,217.14498 268.47041,217.57676 C 269.36573,219.02541 267.05768,219.55979 265.78586,218.19831 C 264.00803,216.29513 259.92297,217.28333 259.92297,219.61658 C 259.92297,220.86798 259.16794,221.53976 257.67297,221.61848 C 253.88209,221.81811 252.50535,221.40305 250.35852,219.41335 C 247.87177,217.10861 246.57455,217.00996 244.92297,219 C 243.27775,220.98237 245.24455,223.5 248.43843,223.5 C 249.68724,223.5 250.96801,224.175 251.2846,225 C 251.70045,226.08369 251.17507,226.5 249.39159,226.5 C 247.14353,226.5 246.40602,227.48163 246.84919,229.88393 C 247.13718,231.44504 241.05576,229.63279 238.95422,227.53125 C 237.83703,226.41406 236.36047,225.53553 235.67297,225.57895 C 234.67297,225.64211 234.67297,225.75877 235.67297,226.16228 C 237.43137,226.87181 237.23452,229.5 235.42297,229.5 C 234.59797,229.5 233.92297,228.81643 233.92297,227.98095 C 233.92297,226.85997 233.26783,226.62632 231.42297,227.08936 C 228.65553,227.78394 228.51511,227.40894 229.8282,222.83045 L 230.73342,219.67411 L 225.32683,219.33706 C 221.04234,219.06995 219.91735,219.31131 219.90629,220.5 C 219.89792,221.40078 219.59885,221.59189 219.15766,220.9784 C 218.75358,220.41652 216.96047,219.8201 215.17297,219.65303 C 212.10189,219.36599 211.92297,219.53082 211.92297,222.64714 C 211.92297,225.91711 211.93614,225.92621 213.47967,223.72251 C 214.33586,222.50013 215.61612,221.5 216.32469,221.5 C 217.80076,221.5 220.92297,224.66396 220.92297,226.15976 C 220.92297,227.33746 217.5498,229.10022 213.69961,229.93457 C 211.51519,230.40794 211.0942,230.21735 211.57229,228.97147 C 211.90011,228.11718 211.77563,227.4899 211.29565,227.57753 C 210.81568,227.66515 208.56295,227.68355 206.2896,227.61842 C 202.93889,227.52242 202.0194,227.07396 201.4336,225.25 C 200.82807,223.36458 200.63583,223.28054 200.24723,224.73139 C 199.99217,225.68365 200.48987,227.47128 201.35323,228.70389 C 202.21659,229.93651 202.92297,231.88388 202.92297,233.03138 C 202.92297,234.17888 203.58366,235.99125 204.39117,237.05887 C 205.19867,238.12649 205.87367,240.03485 205.89117,241.29966 C 205.90866,242.56447 206.54377,244.81447 207.30253,246.29966 C 208.06129,247.78485 208.99705,250.4625 209.38199,252.25 L 210.08188,255.5 L 201.50243,255.5 L 192.92297,255.5 L 192.84173,258.75 C 192.79705,260.5375 192.6398,263.125 192.4923,264.5 C 191.71799,271.71812 190.86648,280.66588 190.44626,286 C 189.83212,293.79579 189.14925,300.90208 187.94784,312 C 187.41197,316.95 186.70443,324.6 186.37552,329 C 185.48471,340.91695 185.02753,346.50151 184.53358,351.5 C 184.28899,353.975 183.79118,359.375 183.42733,363.5 C 183.06347,367.625 182.62349,372.575 182.44958,374.5 C 182.27567,376.425 181.63882,382.05 181.03435,387 C 180.42989,391.95 179.68566,400.275 179.38052,405.5 C 178.18648,425.94579 177.97356,429.11365 177.57737,432.3279 C 177.35176,434.15824 176.77473,436.03784 176.29507,436.50479 C 175.12033,437.64842 136.34818,437.96084 116.19379,436.98907 C 98.481085,436.13504 98.512005,436.14796 99.460335,430 C 99.714845,428.35 100.12238,424.29172 100.36596,420.98161 C 100.60953,417.67149 101.2565,412.97072 101.80367,410.53544 C 102.35084,408.10016 102.62419,405.82558 102.41111,405.4808 C 102.19802,405.13603 102.42113,401.9618 102.9069,398.42697 C 103.39266,394.89214 104.00765,389.975 104.27353,387.5 C 104.53941,385.025 105.01974,380.75 105.34095,378 C 105.66215,375.25 106.11215,370.975 106.34095,368.5 C 106.56974,366.025 107.01974,361.75 107.34095,359 C 107.66215,356.25 108.12183,351.975 108.36246,349.5 C 108.60309,347.025 109.98414,334.875 111.43146,322.5 C 112.87877,310.125 114.43968,296.625 114.90013,292.5 C 115.36059,288.375 116.48584,278.76977 117.4007,271.15504 C 118.31555,263.54031 118.82144,256.67781 118.5249,255.90504 C 118.12353,254.85908 115.9252,254.5 109.92297,254.5 C 103.12032,254.5 101.77425,254.22649 101.31023,252.75 C 100.13936,249.02429 98.829765,246.25987 98.426635,246.663 C 98.194835,246.8948 97.809845,249.09045 97.571095,251.54223 C 97.332355,253.994 96.628645,259.6 96.007305,264 C 95.385965,268.4 94.655215,274.025 94.383425,276.5 C 94.111625,278.975 93.625645,283.25 93.303475,286 C 92.981295,288.75 92.714095,291.675 92.709695,292.5 C 92.705295,293.325 92.333275,295.8 91.882985,298 C 91.432695,300.2 90.791045,304.7 90.457105,308 C 90.123155,311.3 89.665745,314.675 89.440625,315.5 C 89.215505,316.325 88.784075,320.22013 88.481885,324.15584 C 88.179705,328.09155 87.713305,331.91655 87.445445,332.65584 C 87.177585,333.39513 86.753875,336.025 86.503875,338.5 C 86.253865,340.975 85.571915,346.6 84.988425,351 C 83.512656,362.1285 82.155656,373.86665 81.462446,381.5 C 81.337576,382.875 81.139286,384.225 81.021786,384.5 C 80.714336,385.2196 79.732126,393.72357 79.751276,395.5 C 79.760176,396.325 79.145506,400.375 78.385336,404.5 C 77.625176,408.625 76.774166,415.07152 76.494226,418.8256 C 75.791256,428.25234 74.944926,432.23689 73.367546,433.546 C 71.712646,434.91944 2.1312657,435.1083 0.76601565,433.74305 C 0.23936565,433.2164 0.51226565,430.08311 1.4291157,426.12972 C 2.2860657,422.43464 3.0355357,417.74383 3.0946057,415.70569 C 3.1536757,413.66756 3.4365257,411.58848 3.7231657,411.08552 C 4.0097957,410.58255 4.3551657,409.00755 4.4906457,407.58552 C 5.3976357,398.06567 6.0240357,393.14548 6.4081857,392.52391 C 6.6518757,392.12962 7.1085257,388.96886 7.4229657,385.5 C 7.7374057,382.03114 8.1693856,378.9103 8.3829256,378.56479 C 8.5964656,378.21928 9.0355656,375.25086 9.3587256,371.9683 C 9.6818756,368.68573 10.338556,364.33503 10.818016,362.30006 C 11.297476,360.2651 11.461646,358.37201 11.182826,358.09319 C 10.904016,357.81438 11.010186,356.77935 11.418776,355.79313 C 12.165646,353.99037 12.364396,352.77818 13.270366,344.5 C 13.766806,339.96386 15.117466,331.17182 17.055026,319.86399 C 17.633286,316.48919 18.241896,312.43919 18.407486,310.86399 C 18.573076,309.2888 19.260546,304.175 19.935186,299.5 C 20.609826,294.825 21.274966,289.875 21.413266,288.5 C 21.921706,283.44501 24.089516,269.03953 24.422966,268.5 C 24.738826,267.98894 26.759736,254.37014 27.390796,248.5 C 28.297076,240.06981 29.200536,237.49868 31.300776,237.37278 C 32.467986,237.30281 38.147966,236.90235 43.922966,236.48288 L 54.422966,235.7202 L 41.172966,236.02634 C 30.842656,236.26503 27.922966,236.0474 27.922966,235.03869 C 27.922966,234.3271 28.522876,233.24701 29.256106,232.63848 C 30.565056,231.55215 41.296286,230.53195 53.705476,230.31411 C 57.160856,230.25345 60.250276,229.77942 60.570856,229.26071 C 60.891446,228.74199 61.153736,226.13685 61.153736,223.47151 C 61.153736,220.26585 61.622436,218.44557 62.538356,218.0941 C 63.299886,217.80187 63.922966,216.97365 63.922966,216.25363 C 63.922966,215.5336 64.873826,214.13033 66.035986,213.13526 C 67.526306,211.8592 67.836176,211.01321 67.087476,210.26451 C 66.423786,209.60081 66.253746,206.76362 66.633766,202.69402 C 67.076746,197.95034 66.932606,196.37601 66.102326,196.88915 C 64.046636,198.15964 38.980366,197.79253 37.385096,196.46857 C 35.786226,195.14163 35.376776,191.5 36.826456,191.5 C 37.323376,191.5 37.937526,189.3625 38.191236,186.75 C 38.646176,182.06546 41.504026,161.50982 44.412826,142 C 45.232846,136.5 46.384786,128.625 46.972696,124.5 C 47.560596,120.375 48.880166,112.05 49.905066,106 C 50.929966,99.95 52.500346,89.375 53.394806,82.5 C 54.289256,75.625 55.699076,66.29908 56.527716,61.77574 C 57.356366,57.25239 58.227876,51.24928 58.464416,48.43548 C 58.700956,45.62168 59.319976,41.67259 59.840026,39.65974 C 60.360066,37.64688 61.089226,33.00613 61.460376,29.34697 L 62.135196,22.69394 L 79.779076,22.29256 C 89.483215,22.0718 97.793285,22.07501 98.245895,22.29968 C 98.698505,22.52435 105.02051,22.64073 112.29478,22.55829 C 126.06689,22.40222 128.92297,22.82632 128.92297,25.02739 C 128.92297,26.81556 117.76278,27.94258 108.43014,27.09688 C 103.5927,26.65852 100.27753,26.83696 98.538555,27.62928 C 95.315795,29.09767 90.938735,27.46165 90.892555,24.77143 C 90.863695,23.09004 90.810335,23.08895 89.842865,24.75 C 88.973405,26.24277 87.263055,26.5 78.206606,26.5 C 72.367276,26.5 67.909296,26.81965 68.299986,27.21035 C 68.690686,27.60104 73.603186,27.93854 79.216656,27.96035 L 89.422965,28 L 89.305475,32 C 89.177505,36.35657 89.076485,37.15293 85.943665,58.5 C 84.773286,66.475 83.590616,74.8 83.315506,77 C 82.670246,82.16001 82.529336,83.16584 79.953246,101 C 78.761556,109.25 77.638776,117.125 77.458176,118.5 C 77.277586,119.875 76.171456,127.75 75.000116,136 C 72.975796,150.25771 70.390556,168.9046 69.385116,176.5 C 69.130296,178.425 68.763056,181.125 68.569036,182.5 C 67.531456,189.85313 67.017586,195.84896 67.519146,194.75 C 68.278456,193.08628 75.912906,193.08628 75.953376,194.75 C 75.998046,196.58628 78.070376,192.69741 78.396816,190.16471 C 78.550276,188.97412 79.220686,184.175 79.886616,179.5 C 80.552546,174.825 81.283416,169.425 81.510766,167.5 C 81.738116,165.575 82.100706,162.875 82.316526,161.5 C 82.926266,157.61529 89.034575,110.48975 89.510305,106 C 89.743425,103.8 90.200915,100.425 90.526955,98.5 C 91.231215,94.34189 90.916135,96.55677 95.506005,63.5 C 97.529715,48.925 99.399315,35.05499 99.660665,32.67777 C 100.11599,28.5362 102.31504,26.09107 103.77389,28.10428 C 104.13089,28.59692 109.82297,29 116.42297,29 L 128.42297,29 L 128.18689,31.5 C 128.05705,32.875 127.92451,35.8 127.89236,38 C 127.86021,40.2 127.40514,43.61865 126.88109,45.597 C 125.92263,49.21531 125.03485,55.58732 124.45641,63 C 124.28474,65.2 123.43634,71.95 122.57108,78 C 121.70583,84.05 120.76232,91.475 120.47441,94.5 C 120.1865,97.525 119.68002,102.025 119.3489,104.5 C 119.01779,106.975 118.73811,110.8 118.72739,113 C 118.71668,115.2 118.33231,117.23548 117.87325,117.52329 C 117.41419,117.81109 116.95985,120.28609 116.86362,123.02329 C 116.76738,125.76048 116.32285,129.575 115.87578,131.5 C 115.42871,133.425 114.81809,137.925 114.51884,141.5 C 114.21959,145.075 113.69344,150.025 113.34961,152.5 C 113.00578,154.975 112.62637,157.9 112.50648,159 C 112.38659,160.1 111.98207,163.025 111.60755,165.5 C 110.9197,170.04571 109.81192,180.73434 109.74203,183.5 C 109.70782,184.85375 109.39888,186.51335 107.46163,195.75 L 106.88487,198.5 L 93.462925,198.5 C 85.593665,198.5 79.785316,198.0863 79.422966,197.5 C 78.293426,195.67236 77.270106,196.4623 76.184346,200 C 75.172566,203.29668 75.243746,203.5 77.409576,203.5 C 78.674256,203.5 79.968016,202.825 80.284596,202 C 81.037276,200.03853 83.370026,200.08991 85.392615,202.1125 C 86.687825,203.40772 88.817135,203.671 96.214035,203.45054 C 101.27895,203.29958 107.33547,203.14837 109.67297,203.11451 C 112.05326,203.08004 113.92297,202.57026 113.92297,201.95574 C 113.92297,201.20819 116.70724,201.00467 122.65981,201.3171 C 130.57049,201.7323 131.27155,201.62493 130.07372,200.18164 C 128.80342,198.65102 129.33734,196.02003 130.74207,196.8882 C 131.11656,197.11965 131.44966,196.33949 131.48229,195.15451 C 131.63724,189.52681 133.06503,173.86978 134.36892,163.5 C 135.16422,157.175 136.03162,149.75 136.29649,147 C 136.56135,144.25 137.2349,138.85 137.79326,135 C 138.35162,131.15 139.51242,121.25 140.37283,113 C 144.00576,78.16548 148.54975,39.22792 149.51677,34.64522 C 149.88343,32.90764 150.51843,32.42245 151.93952,32.79407 C 152.99874,33.07106 156.24083,32.69868 159.14417,31.96656 L 164.42297,30.63542 L 157.17297,31.19692 C 150.34835,31.72547 149.92297,31.63815 149.92297,29.70866 C 149.92297,27.41909 150.02812,27.38683 165.24651,25.00825 C 170.64946,24.16379 175.47425,23.72267 175.96827,24.02799 C 176.46228,24.33331 177.9844,23.85063 179.35075,22.95536 C 180.7171,22.06009 182.19324,21.549 182.63106,21.81958 C 183.06888,22.09017 189.50117,21.512 196.92503,20.53476 C 210.84226,18.70275 212.92297,18.76921 212.92297,21.04571 C 212.92297,21.87663 211.13668,22.62168 208.17297,23.0269 C 205.56047,23.3841 201.84797,24.08417 199.92297,24.5826 C 197.99797,25.08103 194.42697,25.49135 191.98742,25.49442 C 188.98876,25.49819 186.8831,26.12587 185.48742,27.43202 C 183.66216,29.1402 182.93161,29.2324 179.18204,28.22785 C 175.95679,27.36377 174.14359,27.38005 171.61105,28.29583 C 169.77951,28.95812 167.41292,29.51368 166.35197,29.5304 C 164.67117,29.5569 164.62997,29.6818 166.03179,30.50109 C 167.0411,31.09098 168.90185,31.07965 171.02519,30.47068 C 172.88671,29.9368 174.80838,29.5 175.29558,29.5 C 176.35076,29.5 176.0328,33.12785 170.86957,80 C 168.6885,99.8 164.95224,134.60581 162.56678,157.34624 C 159.34474,188.06168 157.86877,198.92091 156.82627,199.58092 C 156.05446,200.06957 153.17297,200.50789 150.42297,200.55497 C 139.21404,200.74686 139.7672,203.94912 151.17297,204.89678 L 158.92297,205.5407 L 158.92297,201.60214 C 158.92297,195.53346 159.64829,194.5 163.90751,194.5 C 167.24824,194.5 170.66403,192.5744 169.45968,191.37005 C 169.21442,191.12478 169.42027,188.01618 169.91714,184.46205 C 170.41401,180.90792 171.29671,172.6 171.87871,166 C 172.4607,159.4 173.3614,149.95 173.88025,145 C 174.39911,140.05 175.08189,133.075 175.39755,129.5 C 175.98805,122.81219 177.7229,105.91362 180.42802,80.5 C 181.27691,72.525 182.39578,61.95 182.91439,57 C 185.03839,36.72705 186.10815,28.00938 186.56199,27.27506 C 187.47258,25.80169 189.92308,26.50614 189.95338,28.25 C 189.98234,29.91666 190.03232,29.91666 191.00307,28.25 C 192.31388,25.99947 193.91387,25.99947 193.95477,28.25 C 193.98506,29.91666 194.04984,29.91666 195.31502,28.25 C 196.83466,26.24812 198.92297,25.92464 198.92297,27.69113 C 198.92297,28.34625 199.54927,28.02573 200.31476,26.97887 C 201.4486,25.42825 201.98295,25.30489 203.19797,26.31327 C 204.40644,27.31621 204.80549,27.24853 205.30126,25.95657 C 205.69945,24.91891 206.58388,24.57499 207.83389,24.97172 C 208.89031,25.30702 210.04408,25.11305 210.39783,24.54067 C 212.08926,21.80389 212.92245,24.02473 212.5398,30.25 C 212.00672,38.92248 210.13668,59.58977 208.89785,70.5 C 208.36702,75.175 207.47615,84.4 206.91814,91 C 206.36012,97.6 205.70778,105.025 205.46849,107.5 C 205.2292,109.975 204.7749,115.15 204.45893,119 C 204.14295,122.85 203.46377,129.6 202.94964,134 C 202.4355,138.4 201.72379,145.375 201.36807,149.5 C 201.01235,153.625 200.57349,158.575 200.39282,160.5 C 200.21215,162.425 199.52676,170.74117 198.86973,178.98037 C 197.96412,190.33678 197.30037,194.23477 196.12598,195.09351 C 195.27395,195.71653 189.18054,196.72244 182.58507,197.32886 C 172.31704,198.27295 170.43734,198.22064 169.50815,196.96495 C 168.66723,195.82855 168.39501,196.51152 168.29877,199.99923 C 168.23046,202.47465 168.56796,204.5 169.04877,204.5 C 169.52958,204.5 169.92297,204.05 169.92297,203.5 C 169.92297,202.95 170.59797,202.5 171.42297,202.5 C 172.24797,202.5 172.92297,202.95 172.92297,203.5 C 172.92297,204.11333 177.7563,204.5 185.42297,204.5 C 192.74009,204.5 197.92297,204.10206 197.92297,203.54026 C 197.92297,203.0124 199.16047,202.5879 200.67297,202.59693 C 205.61255,202.62643 208.40863,202.02241 209.22266,200.75 C 209.66249,200.0625 210.58812,199.5 211.27962,199.5 C 211.97112,199.5 212.97546,198.2625 213.5115,196.75 C 214.33331,194.43115 214.1676,193.83393 212.45454,192.94072 C 210.97812,192.1709 210.4885,191.03771 210.6628,188.7938 C 210.81687,186.8102 210.36991,185.50175 209.4128,185.13447 C 208.59339,184.82003 207.92297,183.42365 207.92297,182.03138 C 207.92297,179.7865 208.34739,179.49134 211.67297,179.42349 C 213.73547,179.38141 216.21047,179.19623 217.17297,179.01197 C 218.13547,178.82772 218.92297,179.08715 218.92297,179.58848 C 218.92297,180.08982 220.0394,180.5 221.40392,180.5 C 223.21627,180.5 224.05396,181.17373 224.51233,183 C 225.12788,185.45258 225.32452,185.5 234.87856,185.5 C 243.98615,185.5 244.68848,185.64583 245.71496,187.75 L 246.81259,190 L 247.48441,187.75 C 248.13556,185.56924 248.54912,185.5 260.92297,185.5 C 272.8487,185.5 273.72416,185.63175 274.21272,187.5 C 274.89126,190.09474 276.92297,190.09474 276.92297,187.5 C 276.92297,185.60256 277.58964,185.5 289.92297,185.5 C 302.2563,185.5 302.92297,185.60256 302.92297,187.5 C 302.92297,188.6 303.37297,189.5 303.92297,189.5 C 304.47297,189.5 304.92297,190.17191 304.92297,190.99314 C 304.92297,191.81437 305.70413,194.28937 306.65887,196.49314 L 308.39477,200.5 L 314.90887,200.59639 C 318.49163,200.6494 325.8817,200.86299 331.33127,201.07103 C 339.82231,201.39519 341.42693,201.20261 342.54946,199.72465 C 344.30105,197.41846 344.25228,195.01819 342.42297,193.5 C 340.36485,191.79191 340.49252,184.03727 342.63858,180.40429 C 343.71554,178.58114 345.18345,177.5 346.58187,177.5 C 349.2128,177.5 351.92297,180.96541 351.92297,184.3295 C 351.92297,186.09299 352.33491,186.5559 353.50476,186.10699 C 354.37474,185.77314 355.49974,185.5 356.00476,185.5 C 356.50977,185.5 356.92297,183.25 356.92297,180.5 C 356.92297,176.93459 356.53013,175.5 355.55381,175.5 C 353.71021,175.5 352.69435,168.83894 354.1761,166.46629 C 354.81235,165.44749 356.3439,164.36019 357.57954,164.05006 C 359.78038,163.49768 366.92297,166.1892 366.92297,167.57091 C 366.92297,168.80873 364.08952,173.77903 363.00001,174.45239 C 362.41688,174.81278 361.89223,178.76752 361.82598,183.30198 C 361.76011,187.81089 361.29049,191.5 360.78237,191.5 C 360.27425,191.5 359.47532,192.5125 359.00695,193.75 C 358.36956,195.43409 358.63476,196.45515 360.06135,197.80961 C 362.44166,200.06959 361.61883,201.56864 358.10723,201.36964 C 356.63089,201.28597 354.97297,201.33437 354.42297,201.47718 C 349.90564,202.65016 348.13551,199.13009 352.42297,197.5 C 353.79797,196.97723 354.92297,195.86336 354.92297,195.02475 C 354.92297,192.74396 353.72521,193.27972 350.72122,196.9042 L 348.01948,200.16401 L 350.22122,203.34613 C 351.43218,205.0963 353.54797,206.80895 354.92297,207.15201 C 356.29797,207.49508 357.97963,208.21398 358.65998,208.74955 C 360.46107,210.16737 364.90389,208.76029 365.03366,206.73095 C 365.09454,205.77893 365.06296,203.99224 364.96348,202.76054 C 364.83814,201.20878 365.59848,200.14934 367.43949,199.31052 C 369.57923,198.33559 369.82726,197.89559 368.71378,197.04998 C 367.05114,195.78733 363.92297,191.36521 363.92297,190.27749 C 363.92297,189.84987 364.59797,189.5 365.42297,189.5 C 366.24797,189.5 366.92297,189.05 366.92297,188.5 C 366.92297,187.30262 370.89611,187.19632 372.70684,188.34526 C 373.4146,188.79435 373.70314,189.9093 373.34985,190.82995 C 372.85219,192.12683 373.29152,192.5 375.31598,192.5 C 377.22988,192.5 377.92297,193.01603 377.92297,194.44098 C 377.92297,195.50852 377.47297,196.66008 376.92297,197 C 376.37297,197.33992 375.92297,198.54791 375.92297,199.68442 C 375.92297,201.64742 376.35239,201.72826 384.50585,201.30032 C 392.63552,200.87362 394.00761,200.35689 395.15671,197.28919 C 395.30315,196.89824 397.35443,196.33749 399.71511,196.04308 C 404.43944,195.45387 409.92297,192.9996 409.92297,191.47432 C 409.92297,190.93844 411.0972,190.5 412.53238,190.5 C 414.91327,190.5 415.09755,190.78461 414.63664,193.75 C 414.35882,195.5375 413.92417,197.9 413.67076,199 C 413.41735,200.1 413.40343,200.4375 413.63982,199.75 C 414.32583,197.75484 417.54805,198.30273 419.12869,200.68331 C 420.25582,202.38086 420.76231,202.56897 421.40517,201.5288 C 421.95787,200.63451 421.84923,200.42754 421.07748,200.90451 C 420.4425,201.29695 419.92297,201.14148 419.92297,200.55902 C 419.92297,199.97656 420.59797,199.5 421.42297,199.5 C 422.24797,199.5 422.92297,200.15159 422.92297,200.94798 C 422.92297,202.13758 423.48447,202.20022 426.06964,201.29903 C 428.38898,200.4905 429.70001,200.50418 431.05607,201.35105 C 433.31814,202.76374 438.92297,202.86986 438.92297,201.5 C 438.92297,200.95 439.59797,200.5 440.42297,200.5 C 441.24797,200.5 441.92297,200.95 441.92297,201.5 C 441.92297,202.08333 445.2563,202.5 449.92297,202.5 C 456.98964,202.5 457.92297,202.28788 457.92297,200.68182 C 457.92297,198.31328 473.73625,182.5 476.10479,182.5 C 477.12622,182.5 477.97301,181.73313 478.03716,180.75 C 478.09997,179.7875 482.1109,175.2875 486.95035,170.75 C 495.83319,162.42138 499.92297,160.45099 499.92297,164.5 C 499.92297,165.6 499.58547,166.50089 499.17297,166.50199 C 498.76047,166.50308 498.32247,167.93109 498.19963,169.67533 C 498.07679,171.41958 497.51429,173.30868 496.94963,173.87334 C 496.38497,174.438 495.92297,176.13344 495.92297,177.64098 C 495.92297,179.14852 495.52398,180.62855 495.03633,180.92994 C 494.32276,181.37095 492.89197,186.30047 492.5005,189.66667 C 492.45786,190.03333 492.08547,190.67083 491.67297,191.08333 C 490.57129,192.18501 490.75893,195.5 491.92297,195.5 C 492.47297,195.5 492.97922,195.05 493.04797,194.5 C 493.11672,193.95 493.28547,193.05 493.42297,192.5 C 493.56047,191.95 493.72922,191.05 493.79797,190.5 C 493.86672,189.95 494.71047,189.53553 495.67297,189.57895 C 496.71841,189.62611 496.91971,189.86096 496.17297,190.16228 C 495.48547,190.43969 494.92986,191.41667 494.93828,192.33333 C 494.95153,193.77484 495.08456,193.79735 495.92297,192.5 C 496.78464,191.16667 496.89234,191.16667 496.89234,192.5 C 496.89234,193.325 496.45613,194.675 495.92297,195.5 C 495.1248,196.73508 494.95089,196.7498 494.93828,195.58333 C 494.92986,194.80417 494.67968,194.40995 494.38233,194.7073 C 493.2903,195.79934 498.13943,202.5 500.02175,202.5 C 501.29235,202.5 501.96145,203.24631 502.03897,204.75 C 502.12626,206.44317 502.26815,206.56691 502.6123,205.25 C 503.17536,203.09538 505.92297,202.91709 505.92297,205.03518 C 505.92297,206.2431 506.33531,206.34969 507.85723,205.53518 C 510.51271,204.11401 514.64898,204.23403 515.26069,205.75 C 515.5381,206.4375 515.8006,205.9875 515.84402,204.75 C 515.92144,202.5436 518.43372,201.55658 519.08964,203.47487 C 519.51465,204.71785 527.42295,205.073 531.67297,204.03997 C 534.40111,203.37685 534.92297,203.53059 534.92297,204.99744 C 534.92297,206.27967 535.25576,206.46987 536.17297,205.71189 C 537.69852,204.45116 566.92297,204.37226 566.92297,205.62886 C 566.92297,207.37429 569.80581,206.44449 570.42297,204.5 C 571.04259,202.54775 573.92297,201.62884 573.92297,203.38342 C 573.92297,203.86931 575.08575,204.48913 576.50693,204.7608 L 579.09088,205.25475 L 578.42638,199.52935 C 577.89142,194.92013 578.08393,193.4819 579.41385,192.15198 C 581.35796,190.20786 585.56305,189.95888 586.20273,191.75 C 586.44827,192.4375 586.98547,192.6878 587.39652,192.30621 C 588.32443,191.44482 588.14054,175.4988 586.98938,157 C 586.51022,149.3 586.11553,142.325 586.11231,141.5 C 586.10908,140.675 585.84178,134.825 585.51831,128.5 C 584.23546,103.41586 583.95031,97.50924 583.41827,85 C 583.11417,77.85 582.67052,70.2 582.43238,68 C 582.19425,65.8 581.70318,55.45 581.34111,45 C 580.97904,34.55 580.4828,25.65847 580.23834,25.24105 C 579.00973,23.14312 581.13859,20.69922 584.20862,20.68324 C 587.50242,20.66609 595.42297,19.77227 595.42297,19.41772 C 595.42297,19.3091 597.02266,19.12472 598.97785,19.00801 C 600.93303,18.89129 604.15163,18.49208 606.13029,18.12088 L 609.72786,17.44597 L 610.30593,22.22298 C 610.62387,24.85034 611.12853,31.05 611.42739,36 C 611.72626,40.95 612.17927,48.375 612.4341,52.5 C 612.85602,59.32993 614.12436,80.88169 615.46493,104 C 615.75197,108.95 616.17668,115.925 616.40874,119.5 C 616.6408,123.075 617.09867,130.5 617.42623,136 C 617.75379,141.5 618.20792,148.925 618.43541,152.5 C 618.6629,156.075 619.11547,164.625 619.44112,171.5 C 619.76677,178.375 620.26852,185.23454 620.5561,186.74342 C 620.86203,188.34853 620.52797,190.02982 619.75098,190.79547 C 618.28129,192.24371 590.5002,195.97478 588.83757,194.94722 C 588.17283,194.53639 587.91947,196.16968 588.11747,199.58929 C 588.3956,204.39257 588.66932,204.93068 591.17297,205.59612 C 593.71097,206.27069 593.92297,206.10242 593.92297,203.41352 C 593.92297,199.84017 595.45421,199.70215 598.51055,203 C 601.2416,205.94685 605.13818,206.23708 609.9231,203.85005 C 612.94633,202.34186 613.33074,202.33717 614.39702,203.79539 C 615.40184,205.16957 618.9864,205.42349 640.25783,205.62732 C 653.83969,205.75747 664.38306,206.22517 663.68755,206.66666 C 662.83433,207.20826 663.15488,207.47436 664.67297,207.48469 C 666.01311,207.49381 666.92297,206.89343 666.92297,206 C 666.92297,203.99408 668.14687,204.10954 672.19369,206.49722 L 675.57874,208.49445 L 674.62463,202.56997 C 673.74575,197.11265 673.50305,196.70614 671.54674,197.41472 C 670.37867,197.8378 665.37297,198.26264 660.42297,198.35882 C 655.47297,198.45499 649.59718,198.7892 647.36567,199.10149 C 644.60402,199.48797 642.95315,199.24129 642.19603,198.32901 C 641.53794,197.53606 640.43463,185.96506 639.49429,169.99437 C 638.62012,155.14746 637.25628,133.1 636.46353,121 C 635.67079,108.9 634.50127,90.45 633.86461,80 C 633.22795,69.55 632.15505,53.125 631.4804,43.5 C 630.80575,33.875 630.59708,25.60475 631.01669,25.12167 C 631.43631,24.63858 631.26065,23.41232 630.62634,22.39662 C 629.87855,21.19922 629.81585,20.21668 630.44801,19.60217 C 631.36328,18.71244 643.39251,17.33747 662.92297,15.89018 C 667.59797,15.54375 675.47297,14.9065 680.42297,14.47409 C 695.75314,13.1349 700.90415,13.28736 701.60007,15.10092 C 701.93795,15.98143 701.58633,17.09954 700.81869,17.58561 C 700.0085,18.09861 699.89974,18.47579 700.55943,18.48468 C 701.18448,18.4931 701.97313,20.4125 702.312,22.75 C 702.93882,27.07388 707.58118,77.92442 710.41435,111.5 C 711.27294,121.675 712.18693,132.25 712.44544,135 C 713.29462,144.03353 714.84832,161.85956 715.45252,169.5 C 715.77872,173.625 716.44292,180.375 716.92852,184.5 C 717.99112,193.52529 717.22102,194.74091 710.20854,195.10784 C 687.08738,196.31768 685.13004,196.60215 684.52975,198.83988 C 683.62703,202.20499 683.82157,205.5 684.92297,205.5 C 685.47297,205.5 685.92297,206.85 685.92297,208.5 C 685.92297,210.15 685.47297,211.5 684.92297,211.5 C 684.37297,211.5 683.92297,212.18614 683.92297,213.02475 C 683.92297,213.86336 682.84516,214.95928 681.52784,215.46013 C 680.21053,215.96097 678.93199,216.96233 678.68666,217.68538 C 678.11596,219.36732 681.08265,225.44295 682.49048,225.4754 C 683.07761,225.48893 683.97761,227.8625 684.49048,230.75 C 685.4165,235.96355 685.45561,236.00806 690.12321,237.16021 C 692.70834,237.79832 699.45834,238.56528 705.12321,238.86457 C 717.29792,239.50778 715.45542,239.17526 717.35152,241.07143 C 720.52822,244.24808 719.17842,244.70472 708.17297,244.17648 L 697.42297,243.6605 L 707.09959,244.83025 C 712.42173,245.47361 717.01742,246.2457 717.31222,246.546 C 717.60712,246.8463 718.09812,249.9963 718.40352,253.546 C 718.70892,257.0957 719.17092,261.8 719.43032,264 C 719.68962,266.2 720.14302,271.375 720.43792,275.5 C 720.73282,279.625 721.17832,284.575 721.42812,286.5 C 721.67782,288.425 722.13092,293.6 722.43512,298 C 722.73932,302.4 723.19832,307.575 723.45532,309.5 C 723.71222,311.425 724.37512,318.85 724.92842,326 C 725.48162,333.15 726.11972,341.025 726.34642,343.5 C 726.57312,345.975 727.03962,351.825 727.38312,356.5 C 727.72662,361.175 728.43792,369.95 728.96382,376 C 729.48972,382.05 730.14332,389.7 730.41622,393 C 732.37272,416.65826 732.96642,424.08214 733.54162,432.08202 C 734.17192,440.84959 734.29092,441.20039 736.97662,442.21415 C 738.94352,442.95655 740.07582,442.94717 740.84082,442.18213 C 741.61702,441.40596 741.92302,441.6998 741.92302,443.22143 C 741.92302,445.13692 741.46192,445.30734 737.17302,444.97709 C 734.56052,444.77592 725.56052,444.58746 717.17302,444.55829 C 702.03767,444.50565 701.92291,444.48831 701.91504,442.25262 C 701.90605,439.70159 699.50794,407.10632 697.99712,389 C 697.44641,382.4 696.74909,373.175 696.44753,368.5 C 695.49083,353.66875 693.86565,332.11817 693.44989,328.75 C 693.04925,325.50435 693.79006,324.92114 697.67297,325.42535 C 698.36047,325.51463 698.92297,325.08219 698.92297,324.46438 C 698.92297,323.73652 697.86688,323.57305 695.92297,324 C 692.9254,324.65838 692.92286,324.655 692.78674,319.82946 C 692.71182,317.17325 692.50995,313.39699 692.33816,311.43776 C 692.16636,309.47853 691.10691,295.30353 689.98381,279.93776 C 688.86071,264.57199 687.685,250.0875 687.37112,247.75 L 686.80042,243.5 L 691.6117,243.33996 C 695.535,243.20946 695.77701,243.11007 692.92297,242.80143 C 690.99797,242.59325 688.74797,242.168 687.92297,241.85642 C 687.09797,241.54485 679.67297,241.16508 671.42297,241.0125 L 656.42297,240.73507 L 665.92297,241.86754 L 675.42297,243 L 676.10291,249 C 676.47687,252.3 677.0511,258.825 677.37896,263.5 C 685.37753,377.55035 685.82388,384.07757 688.5938,427.5 C 688.96219,433.275 689.29946,439.125 689.34328,440.5 C 689.42125,442.94597 689.2469,443.00624 681.27673,443.28877 C 673.74379,443.55579 673.1691,443.72519 673.64336,445.53877 C 674.08611,447.23186 673.63898,447.5 670.37293,447.5 C 666.13868,447.5 666.09313,446.62904 670.30914,446.28011 C 672.66053,446.0855 672.81366,445.89324 671.42563,444.87829 C 670.18661,443.97229 670.11637,443.58204 671.11997,443.17995 C 671.83662,442.89282 669.49797,442.62926 665.92297,442.59426 C 661.60707,442.55201 659.91095,442.83932 660.87522,443.44933 C 661.67396,443.95462 662.76294,444.09891 663.29516,443.76997 C 663.85859,443.42175 663.98776,443.88877 663.60436,444.88789 C 663.21323,445.90717 663.34724,446.35582 663.93442,445.99292 C 664.47812,445.6569 664.92297,445.85852 664.92297,446.44098 C 664.92297,447.73386 661.15323,447.62192 658.42297,446.24797 z M 134.42297,433.5 C 135.26593,432.13606 139.25962,432.23665 140.68059,433.65762 C 142.67796,435.65499 144.74902,432.79199 145.36643,427.18002 C 145.67986,424.33101 146.15846,419.075 146.42998,415.5 C 146.7015,411.925 147.14033,407.2 147.40516,405 C 147.95274,400.45105 148.63527,393.17624 149.4692,383 C 149.78471,379.15 150.22539,374.2 150.4485,372 C 150.67161,369.8 151.13566,365.075 151.47972,361.5 C 151.82378,357.925 152.23054,353.875 152.38364,352.5 C 152.53673,351.125 152.96342,346.4 153.33184,342 C 153.70026,337.6 154.22972,332.83085 154.50842,331.4019 C 154.78713,329.97294 155.20267,325.69794 155.43184,321.9019 C 155.66102,318.10585 156.07461,313.2 156.35092,311 C 156.62723,308.8 157.10404,304.525 157.4105,301.5 C 157.71696,298.475 158.14827,294.65 158.36896,293 C 158.58965,291.35 159.05256,286.85 159.39764,283 C 159.74272,279.15 160.43142,272.4 160.92808,268 C 161.42474,263.6 162.08905,256.625 162.40433,252.5 C 163.26161,241.28336 163.97298,237.51451 165.26087,237.36597 C 165.90002,237.29225 170.02297,237.26198 174.42297,237.29869 L 182.42297,237.36543 L 176.92297,236.46841 C 172.21296,235.70024 165.33216,235.37138 157.42297,235.53643 C 156.32297,235.55939 148.6825,235.57785 140.44416,235.57746 C 132.20581,235.57707 124.44331,235.83327 123.19416,236.14678 C 121.38596,236.60061 120.92297,236.29904 120.92297,234.66743 C 120.92297,233.54026 121.46858,232.28083 122.13543,231.86869 C 122.80228,231.45656 128.76105,231.18628 135.37713,231.26807 C 142.41114,231.35504 146.83024,231.06072 146.01895,230.55932 C 145.228,230.07048 144.9061,228.98635 145.27019,228.03754 C 145.99763,226.14186 147.92297,226.88322 147.92297,229.05902 C 147.92297,231.13258 153.53408,230.95581 154.33952,228.85687 C 154.68631,227.95315 154.84695,227.16565 154.69651,227.10687 C 152.36255,226.19499 150.17966,224.3306 149.18771,222.40184 C 148.01199,220.11575 147.95174,220.10253 147.93771,222.12756 C 147.9296,223.29771 147.32114,224.75459 146.58557,225.36506 C 145.3659,226.37729 134.22515,226.8112 116.24476,226.54677 L 110.06654,226.45592 L 111.69227,230.72796 C 112.58643,233.07758 114.12912,236.07319 115.12049,237.38486 C 116.11185,238.69653 116.92297,240.55393 116.92297,241.51241 C 116.92297,243.49315 119.27018,245.81945 120.26498,244.82466 C 120.62687,244.46276 120.92297,242.70997 120.92297,240.92956 L 120.92297,237.69246 L 131.17297,237.0146 C 136.81047,236.64177 143.89797,236.48597 146.92297,236.66837 C 152.09114,236.97999 152.41226,237.15083 152.24545,239.5 C 152.06819,241.99617 151.07498,250.77115 150.43446,255.5 C 150.24822,256.875 149.79888,260.925 149.43593,264.5 C 149.07298,268.075 148.62345,272.125 148.43698,273.5 C 148.2505,274.875 147.84601,278.475 147.5381,281.5 C 147.23019,284.525 146.73324,289.25 146.43376,292 C 146.13428,294.75 145.66654,299.25 145.39434,302 C 145.12214,304.75 143.57505,319.375 141.95636,334.5 C 140.33767,349.625 138.72381,366.275 138.36999,371.5 C 138.01618,376.725 137.5572,381.27618 137.35004,381.61373 C 136.90295,382.34221 135.26771,396.9256 134.44741,407.5 C 134.12741,411.625 133.65597,417.025 133.39975,419.5 C 132.04217,432.61409 131.97374,434.5 132.85546,434.5 C 133.37767,434.5 134.08305,434.05 134.42297,433.5 z M 44.020546,428.22753 C 44.425206,426.71444 45.248286,421.31926 45.849616,416.23823 C 46.450946,411.1572 47.383546,403.85 47.922056,400 C 49.378866,389.58491 53.680236,356.87966 54.498016,350 C 54.890286,346.7 55.321846,343.1 55.457036,342 C 55.592226,340.9 56.851196,332.35 58.254746,323 C 59.658296,313.65 61.055686,302.85 61.360056,299 C 61.664426,295.15 62.373666,289.075 62.936136,285.5 C 63.498606,281.925 64.606606,273.825 65.398356,267.5 C 66.190106,261.175 67.104326,253.975 67.429956,251.5 C 67.755576,249.025 68.337216,244.525 68.722486,241.5 L 69.422966,236 L 80.672966,235.71725 C 86.860465,235.56174 91.922965,235.10742 91.922965,234.70766 C 91.922965,234.16913 61.074136,233.90704 57.922966,234.4188 C 57.647966,234.46346 57.415556,237.5375 57.406496,241.25 C 57.397426,244.9625 56.790136,251.825 56.056956,256.5 C 55.323776,261.175 54.592806,266.125 54.432576,267.5 C 53.691916,273.85594 51.869706,286.10164 51.460246,287.47477 C 51.015546,288.9661 49.127466,302.46608 46.421836,323.5 C 45.033736,334.29134 43.519376,345.45768 42.014266,356 C 41.543136,359.3 41.331986,362.29797 41.545036,362.66216 C 41.758096,363.02634 41.294486,366.40134 40.514786,370.16216 C 38.938846,377.7635 34.565726,408.66002 32.540666,426.5 L 32.029856,431 L 37.657326,430.98929 C 42.948236,430.97923 43.328806,430.81405 44.020546,428.22753 z M 546.32205,198.35772 C 545.85339,197.61098 545.40923,192.5 545.33504,187 C 545.14514,172.9237 543.97832,133.73673 543.42938,123 C 543.1763,118.05 542.74598,107.025 542.47311,98.5 C 542.20023,89.975 541.67779,74.225 541.31213,63.5 C 540.94646,52.775 540.59681,39.95 540.53512,35 L 540.42297,26 L 543.42297,25.8682 C 549.05891,25.62061 559.41751,24.37004 563.73802,23.4156 C 566.1113,22.89132 568.41563,22.68644 568.85876,22.96031 C 569.30189,23.23418 569.96374,29.88015 570.32954,37.72913 C 570.69534,45.5781 571.20658,55.825 571.46561,60.5 C 571.72465,65.175 572.38314,80.025 572.92893,93.5 C 573.47472,106.975 574.1542,123.175 574.43889,129.5 C 577.39676,195.2156 577.3963,195.18041 575.30209,196.26133 C 574.26857,196.79477 569.14797,197.53543 563.92297,197.90723 C 558.69797,198.27902 552.79199,198.83797 550.79856,199.14934 C 548.32183,199.53619 546.90434,199.28552 546.32205,198.35772 z M 540.1102,22.75 C 540.38055,21.333 542.91581,20.58079 553.43353,18.797 C 560.57772,17.58535 567.47851,16.81723 568.76862,17.09006 C 570.05873,17.36289 571.66563,17.12853 572.33951,16.56926 C 573.01339,16.00999 574.88285,15.55892 576.49386,15.56689 C 578.10487,15.57485 585.72297,14.72372 593.42297,13.67548 C 607.83801,11.7131 609.92297,11.76016 609.92297,14.04797 C 609.92297,16.0806 609.39737,16.204 594.92297,17.56948 C 584.5803,18.54518 580.8063,19.29508 578.78622,20.77585 C 576.73018,22.28298 575.40875,22.5336 572.78622,21.91383 C 570.93643,21.47667 569.19797,21.161 568.92297,21.21234 C 568.64797,21.26368 565.33389,21.59583 561.55835,21.95046 C 557.78281,22.30509 552.43389,23.02381 549.67186,23.54762 C 542.0149,24.99973 539.71754,24.80809 540.1102,22.75 z" />
</svg>
