<svg xmlns="http://www.w3.org/2000/svg" width="750" height="448" version="1"><path d="M682.042 192.342c1.141.713 2.237 1.136 2.433.939.328-.328-.9-17.737-3.513-49.781-.561-6.875-1.251-16.1-1.534-20.5-1.223-19.036-2.953-40.963-3.984-50.5-.268-2.475-.75-8.325-1.072-13-.322-4.675-.733-10.075-.914-12-.18-1.925-.65-8.732-1.044-15.127l-.715-11.627 5.362-.047c9.358-.082 20.99-.993 21.688-1.698 1.354-1.368-27.277.731-30.193 2.214-2.788 1.417-3.977 1.375-8.133-.289-1.655-.662-1.8-.552-.841.637.637.79 1.454 5.712 1.814 10.937.36 5.225.857 11.975 1.105 15 .248 3.025.89 11.931 1.428 19.792.537 7.86 1.184 15.285 1.437 16.5.253 1.214.697 6.033.987 10.708.929 14.972 2.578 39.128 3.55 52 .518 6.875 1.438 19.7 2.044 28.5.605 8.8 1.272 16.533 1.482 17.184.292.907 1.102.913 3.459.023 2.408-.909 3.529-.88 5.154.135zM597.884 433.25c-.046-11.846-.655-26.411-1.936-46.25-.497-7.7-.952-20.039-1.01-27.42-.059-7.38-.26-13.68-.45-14-.188-.319-.636-9.58-.997-20.58-.667-20.37-.92-26.726-2.187-55-.395-8.8-.754-18.7-.8-22l-.081-6 5-.504c4.875-.491 4.916-.522 1.652-1.244-1.84-.408-4.428-.47-5.75-.138-1.66.416-2.402.18-2.402-.765 0-2.883 3.437-3.435 18-2.891 14.161.53 14.508.595 14.824 2.83.276 1.942-.026 2.204-2 1.732-1.278-.305-4.349-.147-6.824.353l-4.5.908 5 .228c2.75.125 5.529.163 6.175.083.646-.08 1.408.233 1.694.695.519.84 2.034 23.106 3.11 45.713.313 6.6.768 15.375 1.01 19.5.241 4.125.692 13.125 1.001 20 .31 6.875.764 16.325 1.01 21 .245 4.675.673 13 .95 18.5.278 5.5.735 14.5 1.016 20 .28 5.5.742 15.175 1.025 21.5.284 6.325.793 16.563 1.132 22.75l.617 11.25h-34.24l-.04-10.25zm60.539 12.998c-1.774-.893-2.006-2.036-2.05-10.127-.05-9.152-.716-22.631-2.45-49.621-.514-7.975-1.182-19.45-1.487-25.5-.305-6.05-.764-13.475-1.021-16.5-.257-3.025-.7-10.45-.983-16.5-.283-6.05-.73-13.475-.992-16.5-.478-5.506-.955-13.344-2.01-33-.31-5.775-.812-13.313-1.115-16.75l-.551-6.25H630.66l.718-3.75c.395-2.063.709-4.507.698-5.433-.01-.926.613-2.209 1.387-2.85.773-.643 1.71-2.81 2.083-4.817.373-2.008 1.337-4.662 2.142-5.9 1.457-2.239 1.436-2.25-4.068-2.25-3.042 0-5.689-.472-5.881-1.05-.223-.669-5.738-1.059-15.197-1.075-15.557-.026-17.62-.299-17.62-2.33 0-.81-1.479-1.208-4.25-1.144-3.922.091-4.274-.114-4.566-2.651-.184-1.593-.928-2.75-1.77-2.75-1.05 0-1.278.693-.825 2.5.387 1.54.202 2.5-.48 2.5-.61 0-1.109.627-1.109 1.393 0 1.3-2.027 2.607-4.043 2.607-.484 0-1.426-1.912-2.093-4.25l-1.213-4.25-.582 3c-.435 2.24-1.213 3.085-3.075 3.335-3.29.441-3.993 1.227-4.966 5.543l-.817 3.622h4.93c4.786 0 9.859 2.157 9.859 4.192 0 .529-1.463.881-3.25.783-1.788-.098-5.5-.053-8.25.1-4.73.263-4.627.31 1.933.852 6.384.528 6.986.776 7.613 3.136.375 1.41.988 12.66 1.363 25s.867 25.362 1.093 28.937c.384 6.065.748 16.307 2.008 56.5.615 19.635 1.224 38.788 2.066 65 .354 11 1.063 20.519 1.575 21.153.603.745.476 1.336-.36 1.67-.82.33-.654.548.459.598.962.043 1.75-.566 1.75-1.354 0-1.606 3.437-3.033 4.991-2.073.555.343 1.009 1.237 1.009 1.985 0 .938-2.023 1.578-6.495 2.057-8.75.937-33.212.157-34.468-1.099-.563-.563-1.225-9.129-1.503-19.472-1.006-37.352-1.524-57.988-2.008-79.965-.53-24.136-1.601-61.7-2.037-71.5-.147-3.3-.317-8.587-.378-11.75l-.111-5.75h-3.5c-2.695 0-3.483-.403-3.427-1.75.144-3.459 3.075-18.568 4.47-23.052.663-2.127.499-2.248-2.163-1.596-1.584.388-3.105 1-3.38 1.359-.752.982-7 3.373-7.501 2.871-.24-.24-.55-1.915-.688-3.723-.237-3.114-.33-3.187-1.78-1.399-1.626 2.004-5.587 4-4.524 2.279.336-.544.134-.989-.448-.989-.582 0-1.059.675-1.059 1.5 0 2.224-2.683 1.82-3.289-.496-.287-1.098-.28-3.804.017-6.015.427-3.183 1.037-4.143 2.938-4.62 2.243-.563 2.282-.688.616-1.94-1.514-1.136-1.97-1.09-3.032.308-.688.905-1.25 2.658-1.25 3.895 0 2.703-1.747 4.021-3.287 2.48-1.385-1.384-4.713-1.463-4.713-.112 0 .55-.788 1.007-1.75 1.015-1.495.013-1.531.156-.25.982 1.051.677 1.832.523 2.61-.516 1.262-1.683 3.39-1.985 3.39-.481 0 .55.675 1 1.5 1 1.083 0 1.5 1.111 1.5 4 0 2.889-.417 4-1.5 4-.825 0-1.5-.45-1.5-1s-.563-.887-1.25-.75c-.688.137-1.25-.425-1.25-1.25s-1.271-2.135-2.825-2.911c-1.972-.985-2.679-1.966-2.343-3.25.36-1.38-.058-1.82-1.676-1.76-1.186.043-1.594.306-.906.583.687.278 1.25 2.042 1.25 3.921 0 2.75-.39 3.417-2 3.417-1.1 0-2 .401-2 .892 0 1.178-4.442 2.26-6.322 1.538-.815-.313-1.708-1.437-1.986-2.5-.598-2.287-3.234-2.567-4.054-.43-.659 1.718-4.638 2.062-4.638.4 0-.604 2.305-3.356 5.123-6.114 3.928-3.847 4.802-5.22 3.75-5.886-1.132-.717-1.11-.875.127-.9 1.333-.027 1.333-.138 0-1-1.213-.784-1.07-.972.75-.985 1.802-.012 2.25-.58 2.25-2.86 0-3.074-2.305-5.725-5.5-6.323-1.452-.273-2-1.167-2-3.266 0-1.59-.504-3.06-1.119-3.268-.693-.234-.946.528-.664 2.002.653 3.414-8.028 11.09-11.543 10.207-2.227-.558-2.29-.48-.795 1.015.892.892 1.621 2.216 1.621 2.942 0 .727.675 1.581 1.5 1.898.825.316 1.5 1.216 1.5 2 0 1.64-2.11 2.638-5.582 2.638-1.818 0-2.438-.559-2.497-2.25-.052-1.47-.279-1.742-.655-.785-.317.806-1.519 2.303-2.671 3.326-1.152 1.024-1.463 1.533-.69 1.13.931-.484 1.16-.336.68.44-.398.645-1.074.955-1.503.69-.428-.265-1.728.403-2.889 1.484-2.415 2.25-4.271 2.487-5.993.765-.933-.933-1.2-.711-1.2 1 0 1.21.47 2.2 1.045 2.2s2.206 1.16 3.625 2.579c2.214 2.214 2.423 2.922 1.476 5-1.042 2.288-4.146 3.439-4.146 1.538 0-.486-.9-1.12-2-1.407-2.01-.525-2.869-3.71-1-3.71.55 0 1-.45 1-1s-.675-1-1.5-1c-.88 0-1.514.931-1.533 2.25-.056 3.734-6.384 9.75-10.256 9.75-1.867 0-8.192-4.246-10.43-7-.67-.825-1.232-2.287-1.25-3.25-.025-1.408-.958-1.761-4.781-1.807a590.562 590.562 0 0 1-10.49-.25c-7.466-.251-8.433 1.693-1.7 3.42 4.448 1.139 4.94 1.545 4.94 4.076 0 1.832.522 2.811 1.5 2.811.93 0 1.5-.942 1.5-2.481 0-1.816.674-2.65 2.513-3.112 3.113-.78 5.27.89 5.678 4.398.224 1.93 1.131 2.936 3.309 3.67 4.365 1.474 5.658 3.046 4.921 5.983-.573 2.284-1.128 2.542-5.47 2.542-2.658 0-5.111-.45-5.451-1-2.297-3.716-6.805 3.54-6.407 10.312.554 9.418 1.775 8.688-14.536 8.688h-14.442l-.308 4.25c-.28 3.88-.564 4.28-3.258 4.586-3.707.422-5.549-1.889-5.549-6.96 0-2.863.47-3.89 2-4.376 2.343-.744 2.538-1.808.622-3.399-1.082-.898-1.49-.71-1.905.873-.78 2.98-3.275 3.468-5.64 1.103-1.142-1.142-2.077-2.49-2.077-2.994s-.506-1.085-1.125-1.291c-1.32-.44-.224-6.792 1.173-6.792.49 0 .635-.663.323-1.474-.498-1.3-.74-1.3-2.04 0-1.908 1.908-4.331 1.894-4.331-.026 0-.825.477-1.5 1.059-1.5s.774.563.426 1.25c-.348.688-.037.547.69-.312.73-.86 2.05-1.833 2.936-2.165.886-.332 1.857-1.542 2.157-2.688.427-1.635.079-2.088-1.612-2.1-1.58-.012-1.796-.244-.808-.87.742-.47 1.184-1.7.982-2.735-.272-1.39-1.072-1.797-3.07-1.562-2.674.314-2.703.255-2.526-5.314.104-3.277-.291-5.921-.945-6.325-.618-.382-1.025-2.116-.905-3.853l.219-3.159-2.436 1.917c-1.34 1.054-3.779 1.916-5.418 1.916-2.612 0-2.925.3-2.522 2.409.358 1.87.104 2.287-1.133 1.865-1.065-.363-.93-.01.406 1.06 1.79 1.435 1.817 1.606.25 1.634-1.163.021-1.724.787-1.671 2.282.043 1.238.306 1.688.583 1 .712-1.763 2.094-1.555 4.486.673 2.567 2.392 1.655 4.077-2.207 4.077-2.214 0-2.941.466-2.941 1.883 0 1.043.893 2.117 2 2.407 1.1.287 2 .115 2-.384 0-1.502 2.743-1.018 3.362.594.37.964-.04 1.525-1.143 1.57-1.434.059-1.387.213.281.93 1.599.687 1.665.874.332.93-1.977.083-6.257 6.573-5.328 8.077.355.573.049.919-.68.768-1.022-.212-1.438 2.573-1.824 12.225l-.5 12.5-5.647.896c-7.897 1.254-8.853.686-8.853-5.258 0-5.314.802-6.138 5.975-6.138 2.955 0 4.989-2.505 2.161-2.663-.9-.05-13.335-.37-27.635-.71-14.893-.355-26.133-1.024-26.314-1.567-.174-.521-.958-.701-1.743-.4-.785.301-1.704-.175-2.043-1.058-.921-2.4.427-6.602 2.118-6.602 1.787 0 2.072-6.01.366-7.715-.82-.82-.783-3.452.143-9.95.854-5.99 1.495-8.191 1.99-6.835.403 1.1.493 2.407.202 2.905-.29.497-.052.609.532.249.583-.361.807-1.626.497-2.811-.387-1.477-.2-1.93.593-1.44.797.492 1.158-.431 1.158-2.96 0-3.161.275-3.604 1.963-3.163 1.08.282 2.485-.115 3.123-.883.979-1.18-.399-1.397-8.875-1.397-9.017 0-10-.177-9.7-1.75.185-.963.402-2.875.483-4.25.117-1.997.286-2.148.838-.754.642 1.62.78 1.606 1.91-.203 1.681-2.694.172-3.274-4.386-1.686-2.12.739-4.531 1.152-5.356.917-1.247-.354-1.265-.262-.104.549.767.536 1.13 1.668.805 2.515-.425 1.105.169 1.656 2.104 1.951 1.482.226.445.472-2.305.546-2.75.074-4.55-.196-4-.6.55-.404 1.094-1.676 1.21-2.826.172-1.71-.596-2.275-4.219-3.104-2.436-.557-4.21-.66-3.944-.228.896 1.448-1.412 1.983-2.684.621-1.778-1.903-5.863-.915-5.863 1.419 0 1.251-.755 1.923-2.25 2.001-3.79.2-5.168-.215-7.314-2.205-2.487-2.304-3.784-2.403-5.436-.413-1.645 1.982.322 4.5 3.515 4.5 1.25 0 2.53.675 2.847 1.5.415 1.084-.11 1.5-1.893 1.5-2.248 0-2.986.982-2.543 3.384.288 1.561-5.793-.251-7.895-2.353-1.117-1.117-2.594-1.995-3.281-1.952-1 .063-1 .18 0 .583 1.758.71 1.562 3.338-.25 3.338-.825 0-1.5-.684-1.5-1.519 0-1.121-.655-1.355-2.5-.892-2.767.695-2.908.32-1.595-4.259l.905-3.156-5.406-.337c-4.285-.267-5.41-.026-5.42 1.163-.01.9-.308 1.092-.75.478-.403-.561-2.197-1.158-3.984-1.325-3.071-.287-3.25-.122-3.25 2.994 0 3.27.013 3.28 1.557 1.076.856-1.223 2.136-2.223 2.845-2.223 1.476 0 4.598 3.164 4.598 4.66 0 1.177-3.373 2.94-7.223 3.775-2.185.473-2.606.282-2.128-.964.328-.854.204-1.481-.276-1.393-.48.087-2.733.106-5.006.04-3.351-.096-4.27-.544-4.856-2.368-.606-1.885-.798-1.97-1.187-.519-.255.953.243 2.74 1.106 3.973.864 1.233 1.57 3.18 1.57 4.327 0 1.148.66 2.96 1.468 4.028.808 1.067 1.483 2.976 1.5 4.24.018 1.265.653 3.515 1.412 5 .758 1.486 1.694 4.163 2.079 5.951l.7 3.25h-17.159l-.081 3.25c-.045 1.788-.202 4.375-.35 5.75-.774 7.218-1.626 16.166-2.046 21.5-.614 7.796-1.297 14.902-2.498 26-.536 4.95-1.244 12.6-1.572 17-.891 11.917-1.348 17.502-1.842 22.5-.245 2.475-.743 7.875-1.107 12s-.804 9.075-.977 11c-.174 1.925-.811 7.55-1.416 12.5-.604 4.95-1.348 13.275-1.653 18.5-1.195 20.446-1.407 23.614-1.804 26.828-.225 1.83-.802 3.71-1.282 4.177-1.175 1.143-39.947 1.456-60.101.484-17.713-.854-17.682-.841-16.734-6.989.255-1.65.662-5.708.906-9.018.244-3.31.89-8.011 1.438-10.447.547-2.435.82-4.71.607-5.054-.213-.345.01-3.52.496-7.054.486-3.535 1.1-8.452 1.367-10.927.265-2.475.746-6.75 1.067-9.5.321-2.75.771-7.025 1-9.5.229-2.475.679-6.75 1-9.5.321-2.75.78-7.025 1.021-9.5.241-2.475 1.622-14.625 3.07-27a8885.492 8885.492 0 0 0 3.468-30c.46-4.125 1.586-13.73 2.5-21.345.916-7.615 1.421-14.477 1.125-15.25-.401-1.046-2.6-1.405-8.602-1.405-6.803 0-8.149-.274-8.613-1.75-1.17-3.726-2.48-6.49-2.883-6.087-.232.232-.617 2.427-.856 4.88-.239 2.451-.942 8.057-1.564 12.457-.621 4.4-1.352 10.025-1.624 12.5-.271 2.475-.757 6.75-1.08 9.5-.322 2.75-.589 5.675-.593 6.5-.005.825-.377 3.3-.827 5.5-.45 2.2-1.092 6.7-1.426 10-.334 3.3-.791 6.675-1.016 7.5-.225.825-.657 4.72-.96 8.656-.301 3.936-.768 7.76-1.036 8.5-.267.74-.691 3.369-.941 5.844s-.932 8.1-1.516 12.5c-1.475 11.128-2.832 22.867-3.526 30.5-.124 1.375-.323 2.725-.44 3-.308.72-1.29 9.224-1.27 11 .008.825-.606 4.875-1.367 9-.76 4.125-1.61 10.572-1.89 14.326-.704 9.426-1.55 13.41-3.127 14.72-1.655 1.373-71.237 1.562-72.602.197-.527-.527-.254-3.66.663-7.613.857-3.695 1.607-8.386 1.666-10.424.059-2.038.342-4.118.628-4.62.287-.503.632-2.078.768-3.5.907-9.52 1.533-14.44 1.917-15.062.244-.394.7-3.555 1.015-7.024.314-3.469.746-6.59.96-6.935.213-.346.653-3.314.976-6.597.323-3.282.98-7.633 1.459-9.668.48-2.035.644-3.928.365-4.207-.279-.279-.173-1.314.236-2.3.747-1.803.945-3.015 1.851-11.293.497-4.536 1.847-13.328 3.785-24.636.578-3.375 1.187-7.425 1.352-9 .166-1.575.854-6.689 1.528-11.364.675-4.675 1.34-9.625 1.478-11 .509-5.055 2.677-19.46 3.01-20 .316-.511 2.337-14.13 2.968-20 .906-8.43 1.81-11.001 3.91-11.127 1.167-.07 6.847-.47 12.622-.89l10.5-.763-13.25.306c-10.33.239-13.25.021-13.25-.987 0-.712.6-1.792 1.333-2.4 1.31-1.087 12.04-2.107 24.45-2.325 3.455-.06 6.544-.535 6.865-1.053.32-.519.583-3.124.583-5.79 0-3.205.468-5.025 1.384-5.377.762-.292 1.385-1.12 1.385-1.84s.95-2.124 2.113-3.119c1.49-1.276 1.8-2.122 1.051-2.87-.663-.664-.833-3.501-.453-7.571.443-4.744.299-6.318-.532-5.805-2.055 1.27-27.122.904-28.717-.42-1.599-1.327-2.008-4.969-.559-4.969.497 0 1.112-2.137 1.365-4.75.455-4.685 3.313-25.24 6.222-44.75.82-5.5 1.972-13.375 2.56-17.5.588-4.125 1.907-12.45 2.932-18.5 1.025-6.05 2.595-16.625 3.49-23.5.894-6.875 2.304-16.2 3.133-20.724.828-4.524 1.7-10.527 1.936-13.34.237-2.814.856-6.763 1.376-8.776.52-2.013 1.25-6.654 1.62-10.313l.675-6.653 17.644-.401c9.704-.221 18.014-.218 18.467.007.453.224 6.775.34 14.049.258 13.772-.156 16.628.268 16.628 2.47 0 1.788-11.16 2.915-20.493 2.069-4.837-.438-8.152-.26-9.891.532-3.223 1.469-7.6-.167-7.646-2.858-.03-1.681-.083-1.682-1.05-.021-.87 1.493-2.58 1.75-11.636 1.75-5.84 0-10.298.32-9.907.71.39.391 5.303.729 10.917.75l10.206.04-.118 4c-.127 4.357-.229 5.153-3.361 26.5-1.17 7.975-2.353 16.3-2.628 18.5-.646 5.16-.787 6.166-3.363 24-1.191 8.25-2.314 16.125-2.495 17.5-.18 1.375-1.287 9.25-2.458 17.5-2.024 14.258-4.61 32.905-5.615 40.5a876.445 876.445 0 0 1-.816 6c-1.038 7.353-1.551 13.349-1.05 12.25.76-1.664 8.394-1.664 8.434 0 .045 1.836 2.117-2.053 2.444-4.585.153-1.19.824-5.99 1.49-10.665.666-4.675 1.396-10.075 1.624-12 .227-1.925.59-4.625.806-6 .61-3.885 6.718-51.01 7.193-55.5.233-2.2.69-5.575 1.017-7.5.704-4.158.39-1.943 4.979-35 2.024-14.575 3.893-28.445 4.155-30.822.455-4.142 2.654-6.587 4.113-4.574.357.493 6.049.896 12.649.896h12l-.236 2.5c-.13 1.375-.262 4.3-.295 6.5-.032 2.2-.487 5.619-1.01 7.597-.96 3.618-1.847 9.99-2.426 17.403-.171 2.2-1.02 8.95-1.885 15-.865 6.05-1.809 13.475-2.097 16.5-.288 3.025-.794 7.525-1.125 10-.331 2.475-.61 6.3-.622 8.5-.01 2.2-.395 4.235-.854 4.523-.459.288-.913 2.763-1.01 5.5-.096 2.737-.54 6.552-.987 8.477-.447 1.925-1.058 6.425-1.357 10-.3 3.575-.826 8.525-1.17 11-.343 2.475-.723 5.4-.843 6.5-.12 1.1-.524 4.025-.898 6.5-.688 4.546-1.796 15.234-1.866 18-.034 1.354-.343 3.013-2.28 12.25l-.577 2.75H93.463c-7.87 0-13.678-.414-14.04-1-1.13-1.828-2.153-1.038-3.239 2.5-1.011 3.297-.94 3.5 1.226 3.5 1.264 0 2.558-.675 2.875-1.5.752-1.961 3.085-1.91 5.108.113 1.295 1.295 3.424 1.558 10.821 1.338 5.065-.151 11.121-.303 13.459-.336 2.38-.035 4.25-.545 4.25-1.16 0-.747 2.784-.95 8.737-.638 7.91.415 8.612.308 7.414-1.135-1.27-1.531-.737-4.162.668-3.294.375.232.708-.549.74-1.733.155-5.628 1.583-21.285 2.887-31.655.795-6.325 1.663-13.75 1.927-16.5.265-2.75.939-8.15 1.497-12 .559-3.85 1.72-13.75 2.58-22 3.633-34.835 8.177-73.772 9.144-78.355.366-1.737 1.001-2.223 2.423-1.85 1.059.276 4.3-.096 7.204-.828l5.279-1.332-7.25.562c-6.825.528-7.25.441-7.25-1.488 0-2.29.105-2.322 15.324-4.7 5.402-.845 10.227-1.286 10.721-.981.494.305 2.016-.177 3.383-1.073 1.366-.895 2.842-1.406 3.28-1.135.438.27 6.87-.308 14.294-1.285 13.917-1.832 15.998-1.766 15.998.51 0 .832-1.786 1.577-4.75 1.982-2.613.357-6.325 1.057-8.25 1.556-1.925.498-5.496.908-7.936.911-2.998.004-5.104.632-6.5 1.938-1.825 1.708-2.555 1.8-6.305.796-3.225-.864-5.038-.848-7.57.068-1.832.662-4.2 1.218-5.26 1.234-1.68.027-1.722.152-.32.971 1.01.59 2.87.579 4.993-.03 1.862-.534 3.783-.971 4.27-.971 1.056 0 .738 3.628-4.425 50.5-2.181 19.8-5.918 54.606-8.303 77.346-3.222 30.716-4.698 41.575-5.74 42.235-.773.489-3.654.927-6.404.974-11.209.192-10.656 3.394.75 4.342l7.75.644v-3.939c0-6.069.725-7.102 4.985-7.102 3.34 0 6.756-1.926 5.552-3.13-.246-.245-.04-3.354.457-6.908.497-3.554 1.38-11.862 1.962-18.462.582-6.6 1.482-16.05 2.001-21 .52-4.95 1.202-11.925 1.518-15.5.59-6.688 2.325-23.586 5.03-49 .849-7.975 1.968-18.55 2.486-23.5 2.124-20.273 3.194-28.99 3.648-29.725.91-1.473 3.361-.769 3.391.975.03 1.667.08 1.667 1.05 0 1.31-2.25 2.91-2.25 2.952 0 .03 1.667.095 1.667 1.36 0 1.52-2.002 3.608-2.325 3.608-.559 0 .655.626.335 1.392-.712 1.134-1.55 1.668-1.674 2.883-.666 1.208 1.003 1.607.936 2.103-.356.398-1.038 1.283-1.382 2.533-.985 1.056.335 2.21.141 2.564-.431 1.691-2.737 2.524-.516 2.142 5.709-.533 8.672-2.403 29.34-3.642 40.25-.531 4.675-1.422 13.9-1.98 20.5s-1.21 14.025-1.45 16.5c-.239 2.475-.693 7.65-1.01 11.5-.315 3.85-.994 10.6-1.508 15a623.847 623.847 0 0 0-1.582 15.5c-.356 4.125-.795 9.075-.975 11-.18 1.925-.866 10.241-1.523 18.48-.906 11.357-1.57 15.255-2.744 16.114-.852.623-6.945 1.628-13.54 2.235-10.269.944-12.149.892-13.078-.364-.84-1.136-1.113-.453-1.21 3.034-.068 2.476.27 4.501.75 4.501.482 0 .875-.45.875-1s.675-1 1.5-1 1.5.45 1.5 1c0 .613 4.833 1 12.5 1 7.317 0 12.5-.398 12.5-.96 0-.528 1.237-.952 2.75-.943 4.94.03 7.736-.575 8.55-1.847.44-.688 1.365-1.25 2.057-1.25.691 0 1.695-1.238 2.232-2.75.821-2.319.656-2.916-1.057-3.81-1.477-.77-1.967-1.902-1.792-4.146.154-1.984-.293-3.292-1.25-3.66-.82-.314-1.49-1.71-1.49-3.103 0-2.245.424-2.54 3.75-2.608 2.062-.042 4.537-.227 5.5-.411.962-.184 1.75.075 1.75.576 0 .502 1.116.912 2.48.912 1.813 0 2.651.674 3.11 2.5.615 2.453.812 2.5 10.366 2.5 9.107 0 9.81.146 10.836 2.25l1.098 2.25.671-2.25c.652-2.18 1.065-2.25 13.439-2.25 11.926 0 12.801.132 13.29 2 .678 2.595 2.71 2.595 2.71 0 0-1.897.667-2 13-2s13 .103 13 2c0 1.1.45 2 1 2s1 .672 1 1.493c0 .821.781 3.296 1.736 5.5l1.736 4.007 6.514.096c3.583.053 10.973.267 16.422.475 8.491.324 10.096.132 11.218-1.346 1.752-2.307 1.703-4.707-.126-6.225-2.058-1.708-1.93-9.463.216-13.096 1.077-1.823 2.544-2.904 3.943-2.904 2.63 0 5.341 3.465 5.341 6.83 0 1.763.412 2.226 1.582 1.777.87-.334 1.995-.607 2.5-.607.505 0 .918-2.25.918-5 0-3.565-.393-5-1.37-5-1.843 0-2.859-6.661-1.377-9.034.636-1.019 2.168-2.106 3.404-2.416 2.2-.552 9.343 2.14 9.343 3.52 0 1.239-2.833 6.209-3.923 6.882-.583.36-1.108 4.316-1.174 8.85-.066 4.509-.536 8.198-1.044 8.198s-1.307 1.012-1.775 2.25c-.637 1.684-.372 2.705 1.054 4.06 2.38 2.26 1.558 3.759-1.954 3.56-1.476-.084-3.134-.036-3.684.107-4.517 1.173-6.287-2.347-2-3.977 1.375-.523 2.5-1.637 2.5-2.475 0-2.281-1.198-1.745-4.202 1.88l-2.702 3.259 2.202 3.182c1.211 1.75 3.327 3.463 4.702 3.806 1.375.343 3.057 1.062 3.737 1.598 1.801 1.417 6.244.01 6.374-2.019.06-.952.029-2.739-.07-3.97-.126-1.552.634-2.612 2.475-3.45 2.14-.975 2.388-1.415 1.275-2.261-1.663-1.263-4.791-5.685-4.791-6.773 0-.427.675-.777 1.5-.777s1.5-.45 1.5-1c0-1.197 3.973-1.304 5.784-.155.708.45.996 1.564.643 2.485-.498 1.297-.058 1.67 1.966 1.67 1.914 0 2.607.516 2.607 1.941 0 1.068-.45 2.22-1 2.559-.55.34-1 1.548-1 2.684 0 1.963.43 2.044 8.583 1.616 8.13-.426 9.502-.943 10.65-4.01.147-.392 2.198-.953 4.56-1.247 4.723-.59 10.207-3.043 10.207-4.569 0-.536 1.174-.974 2.61-.974 2.38 0 2.565.285 2.104 3.25-.278 1.787-.713 4.15-.966 5.25-.254 1.1-.268 1.438-.031.75.686-1.995 3.908-1.447 5.489.933 1.127 1.698 1.633 1.886 2.276.846.553-.894.444-1.101-.328-.624-.635.392-1.154.236-1.154-.346s.675-1.059 1.5-1.059 1.5.652 1.5 1.448c0 1.19.561 1.252 3.147.351 2.319-.809 3.63-.795 4.986.052 2.262 1.413 7.867 1.519 7.867.149 0-.55.675-1 1.5-1s1.5.45 1.5 1c0 .583 3.333 1 8 1 7.067 0 8-.212 8-1.818 0-2.369 15.813-18.182 18.182-18.182 1.021 0 1.868-.767 1.932-1.75.063-.963 4.074-5.463 8.913-10 8.883-8.329 12.973-10.299 12.973-6.25 0 1.1-.338 2-.75 2.002-.413.001-.85 1.43-.973 3.173-.123 1.745-.686 3.634-1.25 4.198-.565.565-1.027 2.26-1.027 3.768s-.399 2.988-.887 3.289c-.713.44-2.144 5.37-2.536 8.737-.042.366-.415 1.004-.827 1.416-1.102 1.102-.914 4.417.25 4.417.55 0 1.056-.45 1.125-1 .069-.55.237-1.45.375-2 .137-.55.306-1.45.375-2s.912-.964 1.875-.921c1.045.047 1.247.282.5.583-.688.278-1.243 1.255-1.235 2.171.014 1.442.147 1.464.985.167.862-1.333.97-1.333.97 0 0 .825-.437 2.175-.97 3-.798 1.235-.972 1.25-.985.083-.008-.779-.258-1.173-.556-.876-1.092 1.092 3.757 7.793 5.64 7.793 1.27 0 1.94.746 2.017 2.25.087 1.693.23 1.817.573.5.563-2.155 3.311-2.333 3.311-.215 0 1.208.412 1.315 1.934.5 2.656-1.421 6.792-1.301 7.404.215.277.688.54.238.583-1 .077-2.206 2.59-3.193 3.246-1.275.425 1.243 8.333 1.598 12.583.565 2.728-.663 3.25-.51 3.25.957 0 1.283.333 1.473 1.25.715 1.526-1.26 30.75-1.34 30.75-.083 0 1.745 2.883.815 3.5-1.129.62-1.952 3.5-2.871 3.5-1.117 0 .486 1.163 1.106 2.584 1.378l2.584.494-.665-5.726c-.535-4.609-.342-6.047.988-7.377 1.944-1.944 6.149-2.193 6.789-.402.245.688.782.938 1.194.556.927-.861.744-16.807-.408-35.306-.479-7.7-.873-14.675-.877-15.5-.003-.825-.27-6.675-.594-13-1.283-25.084-1.568-30.99-2.1-43.5-.304-7.15-.747-14.8-.986-17-.238-2.2-.729-12.55-1.09-23-.363-10.45-.86-19.342-1.104-19.759-1.228-2.098.9-4.542 3.97-4.558 3.294-.017 11.215-.91 11.215-1.265 0-.109 1.6-.293 3.555-.41 1.955-.117 5.174-.516 7.152-.887l3.598-.675.578 4.777c.318 2.627.823 8.827 1.121 13.777.3 4.95.752 12.375 1.007 16.5.422 6.83 1.69 28.382 3.03 51.5.288 4.95.713 11.925.945 15.5.232 3.575.69 11 1.017 16.5.328 5.5.782 12.925 1.01 16.5.227 3.575.68 12.125 1.005 19 .326 6.875.828 13.735 1.115 15.243.306 1.606-.028 3.287-.805 4.052-1.47 1.449-29.25 5.18-30.913 4.152-.665-.41-.919 1.223-.72 4.642.278 4.804.551 5.342 3.055 6.007 2.538.675 2.75.506 2.75-2.182 0-3.574 1.531-3.712 4.588-.414 2.73 2.947 6.627 3.237 11.412.85 3.023-1.508 3.408-1.513 4.474-.055 1.005 1.375 4.59 1.628 25.86 1.832 13.583.13 24.126.598 23.43 1.04-.853.541-.532.807.986.818 1.34.009 2.25-.592 2.25-1.485 0-2.006 1.224-1.89 5.27.497l3.386 1.997-.954-5.924c-.88-5.457-1.122-5.864-3.078-5.155-1.168.423-6.174.848-11.124.944-4.95.096-10.826.43-13.057.742-2.762.387-4.413.14-5.17-.772-.658-.793-1.761-12.364-2.702-28.335a9076.971 9076.971 0 0 0-3.03-48.994c-.793-12.1-1.963-30.55-2.6-41a4862.92 4862.92 0 0 0-2.384-36.5c-.674-9.625-.883-17.895-.463-18.378.42-.483.244-1.71-.39-2.725-.748-1.198-.811-2.18-.179-2.795.915-.89 12.945-2.265 32.475-3.712 4.675-.346 12.55-.984 17.5-1.416 15.33-1.34 20.481-1.187 21.177.627.338.88-.014 1.999-.781 2.485-.81.513-.92.89-.26.899.625.008 1.414 1.928 1.753 4.265.627 4.324 5.27 55.174 8.102 88.75.859 10.175 1.773 20.75 2.031 23.5.85 9.034 2.403 26.86 3.008 34.5.326 4.125.99 10.875 1.476 15 1.062 9.025.292 10.24-6.72 10.608-23.122 1.21-25.079 1.494-25.68 3.732-.902 3.365-.707 6.66.394 6.66.55 0 1 1.35 1 3s-.45 3-1 3-1 .686-1 1.525c0 .838-1.078 1.934-2.395 2.435-1.317.501-2.596 1.502-2.841 2.225-.571 1.682 2.396 7.758 3.803 7.79.588.014 1.488 2.388 2 5.275.927 5.214.966 5.258 5.633 6.41 2.585.638 9.335 1.405 15 1.705 12.175.643 10.332.31 12.229 2.206 3.176 3.177 1.826 3.634-9.179 3.105l-10.75-.515 9.677 1.17c5.322.643 9.917 1.415 10.212 1.715.295.3.786 3.45 1.092 7 .305 3.55.767 8.254 1.026 10.454.26 2.2.713 7.375 1.008 11.5.295 4.125.74 9.075.99 11 .25 1.925.703 7.1 1.007 11.5.304 4.4.763 9.575 1.02 11.5.257 1.925.92 9.35 1.473 16.5.554 7.15 1.192 15.025 1.418 17.5.227 2.475.694 8.325 1.037 13 .344 4.675 1.055 13.45 1.58 19.5.527 6.05 1.18 13.7 1.453 17 1.957 23.658 2.55 31.082 3.126 39.082.63 8.768.749 9.118 3.435 10.132 1.967.743 3.099.733 3.864-.032.776-.776 1.082-.482 1.082 1.04 0 1.915-.461 2.085-4.75 1.755-2.612-.201-11.612-.39-20-.419-15.135-.052-15.25-.07-15.258-2.305-.009-2.551-2.407-35.147-3.918-53.253-.55-6.6-1.248-15.825-1.55-20.5-.956-14.831-2.581-36.382-2.997-39.75-.4-3.246.34-3.829 4.223-3.325.687.09 1.25-.343 1.25-.96 0-.728-1.056-.892-3-.465-2.998.658-3 .655-3.136-4.17-.075-2.657-.277-6.433-.449-8.392-.172-1.96-1.231-16.134-2.354-31.5s-2.299-29.85-2.613-32.188l-.57-4.25 4.81-.16c3.924-.13 4.166-.23 1.312-.539-1.925-.208-4.175-.633-5-.945-.825-.311-8.25-.69-16.5-.844l-15-.277 9.5 1.133 9.5 1.132.68 6c.374 3.3.948 9.825 1.276 14.5 7.999 114.05 8.445 120.578 11.215 164 .368 5.775.705 11.625.75 13 .077 2.446-.097 2.506-8.067 2.789-7.533.267-8.108.436-7.634 2.25.443 1.693-.004 1.961-3.27 1.961-4.234 0-4.28-.871-.064-1.22 2.352-.194 2.505-.387 1.117-1.402-1.24-.906-1.31-1.296-.306-1.698.717-.287-1.622-.55-5.197-.586-4.316-.042-6.012.245-5.048.855.799.506 1.888.65 2.42.321.564-.348.693.119.31 1.118-.392 1.02-.258 1.468.33 1.105.543-.336.988-.134.988.448 0 1.293-3.77 1.18-6.5-.193zm-524-12.748c.843-1.364 4.837-1.263 6.258.158 1.997 1.997 4.068-.866 4.685-6.478.314-2.849.792-8.105 1.064-11.68.272-3.575.71-8.3.975-10.5.548-4.549 1.23-11.824 2.064-22 .316-3.85.756-8.8.98-11 .223-2.2.687-6.925 1.03-10.5.345-3.575.752-7.625.905-9 .153-1.375.58-6.1.948-10.5s.898-9.17 1.176-10.598c.28-1.43.695-5.704.924-9.5.229-3.796.643-8.702.919-10.902.276-2.2.753-6.475 1.06-9.5.306-3.025.737-6.85.958-8.5.22-1.65.684-6.15 1.029-10a797.33 797.33 0 0 1 1.53-15c.497-4.4 1.161-11.375 1.476-15.5.858-11.217 1.569-14.985 2.857-15.134.639-.074 4.762-.104 9.162-.067l8 .066-5.5-.897c-4.71-.768-11.59-1.097-19.5-.932-1.1.023-8.74.042-16.979.041-8.238 0-16 .256-17.25.57-1.808.454-2.271.152-2.271-1.48 0-1.127.546-2.386 1.212-2.798.667-.412 6.626-.683 13.242-.6 7.034.086 11.453-.208 10.642-.71-.791-.489-1.113-1.573-.749-2.521.728-1.896 2.653-1.155 2.653 1.021 0 2.074 5.611 1.897 6.417-.202.346-.904.507-1.691.357-1.75-2.334-.912-4.517-2.776-5.51-4.705-1.175-2.286-1.235-2.3-1.25-.274-.007 1.17-.616 2.627-1.351 3.237-1.22 1.012-12.36 1.446-30.341 1.182l-6.178-.091 1.625 4.272c.894 2.35 2.437 5.345 3.428 6.657.992 1.312 1.803 3.169 1.803 4.127 0 1.981 2.347 4.307 3.342 3.313.362-.362.658-2.115.658-3.895v-3.238l10.25-.677c5.637-.373 12.725-.529 15.75-.347 5.168.312 5.49.483 5.322 2.832-.177 2.496-1.17 11.271-1.81 16-.187 1.375-.636 5.425-1 9-.362 3.575-.812 7.625-.998 9-.187 1.375-.591 4.975-.899 8-.308 3.025-.805 7.75-1.104 10.5-.3 2.75-.767 7.25-1.04 10-.272 2.75-1.819 17.375-3.438 32.5-1.618 15.125-3.232 31.775-3.586 37-.354 5.225-.813 9.776-1.02 10.114-.447.728-2.082 15.312-2.903 25.886-.32 4.125-.791 9.525-1.047 12-1.358 13.114-1.426 15-.545 15 .523 0 1.228-.45 1.568-1zm-90.402-5.272c.404-1.514 1.227-6.909 1.829-11.99.6-5.08 1.534-12.388 2.072-16.238 1.457-10.415 5.758-43.12 6.576-50 .392-3.3.824-6.9.959-8 .135-1.1 1.394-9.65 2.798-19 1.403-9.35 2.8-20.15 3.105-24 .304-3.85 1.014-9.925 1.576-13.5.563-3.575 1.67-11.675 2.462-18 .792-6.325 1.706-13.525 2.032-16 .326-2.475.907-6.975 1.292-10l.701-5.5 11.25-.283c6.187-.155 11.25-.61 11.25-1.01 0-.538-30.849-.8-34-.288-.275.044-.507 3.118-.517 6.831-.009 3.713-.616 10.575-1.349 15.25-.733 4.675-1.464 9.625-1.624 11-.741 6.356-2.563 18.602-2.973 19.975-.444 1.491-2.333 14.991-5.038 36.025a2399.733 2399.733 0 0 1-4.408 32.5c-.47 3.3-.682 6.298-.469 6.662.213.364-.25 3.74-1.03 7.5-1.576 7.602-5.95 38.498-7.974 56.338l-.511 4.5 5.627-.01c5.291-.01 5.672-.176 6.364-2.762zm502.301-229.87c-.469-.747-.913-5.858-.987-11.358-.19-14.076-1.357-53.263-1.906-64-.253-4.95-.683-15.975-.956-24.5-.273-8.525-.795-24.275-1.16-35-.367-10.725-.716-23.55-.778-28.5l-.112-9 3-.132c5.636-.247 15.995-1.498 20.315-2.452 2.373-.525 4.678-.73 5.12-.456.444.274 1.106 6.92 1.472 14.77.365 7.848.877 18.095 1.136 22.77.259 4.675.917 19.525 1.463 33 .546 13.475 1.225 29.675 1.51 36 2.958 65.716 2.957 65.68.863 66.761-1.033.534-6.154 1.274-11.379 1.646-5.225.372-11.131.931-13.124 1.242-2.477.387-3.895.137-4.477-.791zM540.11 22.75c.27-1.417 2.806-2.17 13.324-3.953 7.144-1.212 14.045-1.98 15.335-1.707 1.29.273 2.897.039 3.57-.52.674-.56 2.544-1.011 4.155-1.003 1.61.008 9.229-.843 16.929-1.892 14.415-1.962 16.5-1.915 16.5.373 0 2.033-.526 2.156-15 3.521-10.343.976-14.117 1.726-16.137 3.207-2.056 1.507-3.377 1.758-6 1.138-1.85-.437-3.588-.753-3.863-.702-.275.052-3.59.384-7.365.738-3.775.355-9.124 1.074-11.886 1.598-7.657 1.452-9.954 1.26-9.562-.798z" stroke="#000"/></svg>