<svg xmlns="http://www.w3.org/2000/svg" width="320" height="61" viewBox="0 0 319.99999 60.999999"><path d="M74.578 14.564H47.52l-1.003.75v24.071h7.49V30.36l.716-.641h19.856c5.014 0 7.364-1.349 7.364-4.81v-5.527c0-3.467-2.35-4.817-7.365-4.817m0 8.9c0 1.63-1.079 1.969-3.43 1.969H54.806l-.798-.776v-5.156l.715-.654H71.15c2.35 0 3.43.334 3.43 1.973v2.644zm21.024-4.347l6.446 9.443-.357.915H87.436l-3.638 4.476h21.218l1.47.895 3.294 4.544h8.572L99.563 14.257m81.275 20.245V27.82l.77-.666h14.34V22.9h-22.727v16.49h33.526v-4.235h-25.105m-8.422-20.591h33.881v4.678h-33.88zm-37.787 4.43h27.295c-.421-3.47-2.575-4.433-8.038-4.433h-19.548c-6.164 0-8.13 1.203-8.13 5.868v13.089c0 4.67 1.966 5.873 8.13 5.873h19.548c5.543 0 7.666-1.041 7.81-4.641h-27.067l-.803-.756V19.5M28.303 24.236H8.446l-.584-.643v-4.248l.582-.45h26.768l.365-.894c-.912-2.345-3.273-3.44-7.657-3.44H9.325c-6.16 0-8.13 1.204-8.13 5.869v2.744c0 4.671 1.97 5.872 8.13 5.872h19.813l.622.547v4.44l-.508.693H6.59v-.021H.654s-.68.34-.653.5c.506 3.263 2.73 4.187 8.052 4.187h20.25c6.16 0 8.188-1.203 8.188-5.873V30.1c0-4.662-2.028-5.864-8.188-5.864m200.111-9.774h-11.146l-.605 1.151 12.378 9.023a124.307 124.307 0 0 1 7.67-4.091m1.689 10.914l10.88 7.933h11.28l.468-1.05-16.245-11.891a127.466 127.466 0 0 0-6.383 5.008" fill="#005288"/><path d="M226.755 39.374H216.67l-.852-1.335C222.675 31.42 253.34 3.041 320 0c0 0-55.95 1.888-93.245 39.374" fill="#a7a9ac"/><path d="M23.59 61h-3.885V49.765q0-.595.14-1.855-.315.665-1.05 1.89l-6.79 9.03h-.84l-6.79-9.065q-.735-.98-1.085-1.855.105 1.085.105 1.785V61H0V42.94h3.395L11.9 53.86l8.33-10.92h3.36V61zm11.122 0h-3.605V46.195h3.605V61zm23.556-3.5q0 2.1-.84 2.8-.84.7-3.01.7h-9.625q-2.38 0-3.15-.77-.735-.805-.735-3.15l3.22-.595v1.75h10.885V54.84h-9.59q-2.17 0-2.975-.665-.91-.735-.91-2.835v-1.645q0-2.1.91-2.835.805-.665 2.975-.665h8.785q2.24 0 3.045.7.84.7.84 2.87l-3.115.665v-1.575H44.793v3.115h9.625q2.17 0 3.01.7.84.665.84 2.8v2.03zm22.182 0q0 2.1-.84 2.8-.84.7-3.01.7h-9.624q-2.38 0-3.15-.77-.735-.805-.735-3.15l3.22-.595v1.75h10.885V54.84h-9.59q-2.17 0-2.975-.665-.91-.735-.91-2.835v-1.645q0-2.1.91-2.835.805-.665 2.975-.665h8.785q2.24 0 3.045.7.84.7.84 2.87l-3.115.665v-1.575H66.976v3.115H76.6q2.17 0 3.01.7.84.665.84 2.8v2.03zm9.839 3.5h-3.605V46.195h3.605V61zm25.375-3.5q0 2.1-.84 2.8-.84.7-3.01.7H100.37q-2.17 0-3.01-.665-.84-.7-.84-2.835v-7.805q0-2.135.84-2.8.84-.7 3.01-.7h11.445q2.17 0 3.01.7.84.665.84 2.8V57.5zm-3.605.665v-9.24h-11.935v9.24h11.935zM140.194 61h-2.485l-12.53-9.975V61h-3.29V46.195h2.485l12.565 9.835v-9.835h3.255V61zm38.805-4.27q0 2.52-.98 3.395-.945.875-3.5.875h-10.78q-2.555 0-3.535-.875-.945-.875-.945-3.395v-9.52q0-2.52.945-3.395.98-.875 3.535-.875h10.78q3.22 0 3.99 1.505.49.875.49 4.48l-4.2.665v-3.43h-11.34v11.445h11.34V53.72l4.2.875v2.135zm26.137.77q0 2.1-.84 2.8-.84.7-3.01.7h-11.445q-2.17 0-3.01-.665-.84-.7-.84-2.835v-7.805q0-2.135.84-2.8.84-.7 3.01-.7h11.445q2.17 0 3.01.7.84.665.84 2.8V57.5zm-3.605.665v-9.24h-11.935v9.24h11.935zM229.666 61h-2.485l-12.53-9.975V61h-3.29V46.195h2.485l12.565 9.835v-9.835h3.255V61zm22.641-12.145h-7.175V61h-3.605V48.855h-7.14v-2.66h17.92v2.66zM275.297 61h-5.18l-6.195-5.6h-3.395V61h-3.57V46.195h13.335q3.465 0 3.465 2.87v3.5q0 2.17-1.855 2.66-.63.175-3.64.175l7.035 5.6zm-4.9-9.345V49.94q0-1.19-1.645-1.19h-8.225v4.095h8.225q1.645 0 1.645-1.19zm28.118 5.845q0 2.1-.84 2.8-.84.7-3.01.7H283.22q-2.17 0-3.01-.665-.84-.7-.84-2.835v-7.805q0-2.135.84-2.8.84-.7 3.01-.7h11.445q2.17 0 3.01.7.84.665.84 2.8V57.5zm-3.605.665v-9.24h-11.935v9.24h11.935zM320 61h-15.26V46.195h3.64v12.04H320V61z" style="line-height:125%;-inkscape-font-specification:'BankGothic Bold'" fill="#005288" font-weight="700" font-family="BankGothic" letter-spacing="0" word-spacing="0"/></svg>